<?xml version="1.0" encoding="utf-8"?>
<!-- Designed by Vexels.com - 2020 All Rights Reserved - https://vexels.com/terms-and-conditions/  -->
<svg version="1.1" id="Layer_1" xmlns="http://www.w3.org/2000/svg" xmlns:xlink="http://www.w3.org/1999/xlink" x="0px" y="0px"
	 viewBox="0 0 1200 1200" enable-background="new 0 0 1200 1200" xml:space="preserve">
<g>
	<path fill="none" d="M156.605,694.003c-0.562,6.54-10.788,18.305-13.229,21.744c-2.667,3.757-5.301,7.826-8.494,11.154
		c-0.996,1.038-6.845,4.594-4.804,0.081c3.839-8.338,8.444-16.338,13.067-24.258c0.828-1.419,3.21-6.444,5.906-9.844
		c-1.514-0.607-2.861-1.422-3.976-2.52c-2.224-2.19-3.265-4.964-3.642-7.835c-1.026,0.877-2.028,1.687-2.805,2.398
		c-4.122,3.779-8.443,7.353-13.026,10.561c-4.429,3.1-9.061,5.837-13.969,8.104c-0.747,0.345-2.564,1.539-3.394,1.484
		c-1.466-0.097-4.034-1.476-1.818-3.137c8.295-6.216,16.301-12.632,23.911-19.68c0.625-0.579,4.027-4.099,7.556-6.913
		c-3.926-0.534-7.196-2.097-9.631-4.62c-4.491,4.742-17.158,8.674-20.821,10.233c-4.019,1.711-8.269,3.725-12.519,4.79
		c-1.289,0.323-8.113,0.27-4.013-2.516c6.929-4.618,14.23-8.706,21.544-12.674c1.28-0.695,7.577-4.71,12.245-5.952
		c-0.942-3.228-0.663-6.598,0.868-9.886c-7.038,0.725-16.78-0.597-20.123-0.708c-5.735-0.19-11.473-0.514-17.183-1.087
		c-0.862-0.087-4.44,0.048-5.214-0.602c-1.029-0.864-2.798-3.265,0.027-3.628c10.587-1.282,21.294-1.688,31.947-2.005
		c1.124-0.033,5.193-0.423,9.232-0.338c-4.704-5.321-6.016-11.294-3.45-17.078c0.075-0.168,0.187-0.324,0.268-0.49
		c-1.449-0.47-2.86-1.162-3.912-1.571c-5.542-2.153-11.201-4.013-16.813-5.971c-4.236-1.478-8.734-2.668-12.821-4.529
		c-1.304-0.594-6.56-4.791-1.666-4.479c9.082,0.688,18.164,2.732,26.854,5.395c1.713,0.525,9.305,2.524,12.871,5.366
		c1.825-1.622,4-3.011,6.517-4.161c-8.068-8.72-29.705-28.51-57.041-24.737c-4.786,0.665-10.81,2.252-12.329,6.034
		c-1.578,3.931,1.658,10.135,5.213,14.629c0.959,1.216,1.324,2.775,1.005,4.28c-0.325,1.53-1.31,2.828-2.704,3.56
		c-3.802,2.008-5.892,4.31-6.209,6.839c-0.66,5.282,5.678,11.463,7.636,13.232c1.225,1.109,1.849,2.745,1.672,4.382
		c-0.179,1.659-1.152,3.147-2.605,3.979c-5.774,3.309-8.822,6.941-9.064,10.8c-0.36,5.775,5.431,12.288,10.971,16.456
		c1.948,1.457,2.612,4.143,1.57,6.375c-1.905,4.071-3.69,9.654-1.393,13.162c3.218,4.915,13.107,5.02,16.068,4.965
		c1.743-0.092,3.387,0.775,4.395,2.187c1,1.403,1.237,3.209,0.632,4.826c-2.84,7.599-3.457,14.071-1.57,16.491
		c1.583,2.031,6.667,0.264,10.541-1.864c1.795-0.992,3.938-0.847,5.587,0.364c1.644,1.211,2.415,3.209,2.011,5.214
		c-0.766,3.802-1.55,10.92,1.819,15.87c1.966,2.89,5.096,4.684,9.569,5.484c8.047,1.438,15.753-1.036,22.896-7.362
		c14.754-13.068,23.325-38.92,25.528-51.825c-0.75,0.258-1.494,0.487-2.234,0.674C161.343,693.537,158.866,693.909,156.605,694.003z
		"/>
	<path fill="none" d="M250.72,560.698c-0.696-11.952-9.855-27.216-11.511-29.528c-0.227-0.316-0.505-0.609-0.873-0.921
		c-1.36-1.146-2.733-0.912-3.644-0.513c-1.102,0.477-1.831,1.17-1.801,2.997c0.03,1.902-0.684,3.687-2.008,5.025
		c-1.334,1.347-3.138,2.155-5.056,2.072c-0.012,0-0.025,0-0.037,0c-0.724,0-1.36,0.157-1.946,0.481
		c-0.851,0.468-1.729,1.21-1.8,3.155c-0.132,3.595-3.043,6.414-6.772,6.557c-0.725,0.027-1.662,1.013-2.504,2.636
		c-0.036,0.069-0.05,0.096,0,0.286c0.739,2.787,9.133,7.682,15.879,11.619c2.723,1.587,5.558,3.241,8.359,4.98
		c0.635,0.394,1.315,0.708,2.023,0.934c2.722,0.877,5.608,0.341,7.923-1.452C249.5,567.051,250.909,563.936,250.72,560.698z"/>
	<path fill="none" d="M204.037,536.135c-4.441-4.851-8.777-9.798-13.011-14.832c-3.821-4.543-7.513-9.176-11.191-13.834
		c-0.511-0.647-2.454-2.44-2.613-3.275c-0.251-1.316,0.018-4.398,2.39-2.701c9.059,6.824,16.935,15.733,24.743,23.907
		c3.715,3.889,8.381,7.821,11.623,12.213c0.976-1.646,2.371-3.015,4.168-4.005c0.784-0.433,1.605-0.769,2.457-1.006
		c-4.769-6.432-7.916-21.569-8.785-25.226c-1.496-6.297-2.51-12.717-3.04-19.169c-0.106-1.294-0.958-5.129-0.357-6.322
		c0.64-1.269,2.865-3.312,3.588-0.535c2.704,10.56,5.317,21.164,8.949,31.454c0.544,1.542,3.385,7.071,5.208,12.29
		c0.954-0.975,2.113-1.788,3.484-2.382c1.186-0.515,2.404-0.794,3.618-0.895c-1.74-6.719-3.203-14.144-4.361-22.173
		c-5.171-35.846-8.915-44.892-18.139-43.927c-3.859,0.396-3.934,1.281-4.298,5.53c-0.353,4.126-0.886,10.359-8.544,13.14
		c-6.632,2.409-11.7-0.502-15.773-2.841c-4.617-2.651-7.404-4.254-12.503-0.358c-5.325,4.072-4.891,8.473-3.542,15.236
		c0.896,4.496,1.912,9.592-1.618,13.392c-1.499,1.613-3.213,2.845-4.724,3.931c-1.793,1.288-3.484,2.505-3.613,3.558
		c-0.087,0.719,0.192,2.956,4.654,8.187c7.095,8.318,16.433,14.041,26.319,20.102c5.981,3.666,12.163,7.457,17.787,11.869
		c0.009,0.007,0.018,0.014,0.027,0.021c1.244-1.894,2.594-3.098,3.915-3.871C208.218,541.483,205.944,538.218,204.037,536.135z"/>
	<path fill="none" d="M401.764,505.583c0.554,4.831,3.827,13.661,18.113,23.655c0.335-0.382,0.681-0.752,1.03-1.117
		C420.265,520.73,416.171,511.533,401.764,505.583z"/>
	<path fill="none" d="M313.428,545.06c0.458-2.531-0.736-4.761-3.55-6.627c-0.563-0.283-2.217-0.727-3.973-0.727
		c-1.049,0-2.134,0.158-3.044,0.604c-0.792,0.387-1.893,1.178-2.318,3.579c-0.43,2.42,0.117,4.318,1.672,5.8
		c2.247,2.144,5.807,2.75,7.518,2.363C310.72,549.828,312.92,547.864,313.428,545.06z"/>
	<path fill="none" d="M201.794,634.657c-0.003-0.009-0.003-0.019-0.006-0.028c-1.109-1.985-2.888-3.502-5.1-4.19
		c-31.047-9.642-48.181-8.72-57.094-6.253c-4.418,1.226-7.894,3.142-10.05,5.543c-0.754,0.84-1.343,1.732-1.75,2.648
		c-2.447,5.516,3.104,10.379,6.631,12.786c1.434,0.977,2.357,2.529,2.526,4.25c0.169,1.722-0.431,3.418-1.647,4.656
		c-3.499,3.56-4.394,6.889-2.657,9.896c2.246,3.892,7.011,4.243,10.606,3.832c0.214-0.022,0.427-0.035,0.64-0.035
		c1.647,0,3.236,0.705,4.345,1.958c1.252,1.41,1.74,3.348,1.307,5.182c-1.094,4.632-0.757,8.371,0.899,10.003
		c1.821,1.791,5.992,1.976,11.743,0.526c2.047-0.518,4.198-1.435,6.579-2.805c13.877-7.995,26.679-28.165,33.076-39.479
		c1.288-2.278,1.471-4.987,0.512-7.437C202.122,635.394,201.922,635.049,201.794,634.657z"/>
	<path fill="none" d="M281.649,655.956c8.443-0.242,25.933-3.244,37.154-22.547c-0.064,0-0.128,0-0.194,0
		C311.466,633.409,290.88,635.277,281.649,655.956z"/>
	<path fill="none" d="M451.102,624.808c7.436-20.396-0.555-31.134-5.769-35.617c-7.775,17.36,3.467,32.867,5.565,35.533
		C450.966,624.752,451.034,624.78,451.102,624.808z"/>
	<path fill="none" d="M518.1,575.29c-0.138-2.569-1.817-4.462-4.988-5.626c-0.259-0.062-0.715-0.107-1.284-0.107
		c-1.58,0-4.029,0.344-5.57,1.609c-0.68,0.558-1.57,1.585-1.428,4.019c0.142,2.454,1.112,4.173,2.967,5.257
		c2.681,1.562,6.288,1.33,7.863,0.558C516.569,580.554,518.254,578.135,518.1,575.29z"/>
	<path fill="none" d="M953.048,569.026c2.322,1.796,5.207,2.327,7.92,1.452c0.713-0.227,1.393-0.541,2.023-0.932
		c2.805-1.742,5.641-3.396,8.364-4.983c6.744-3.936,15.14-8.832,15.878-11.62c0.052-0.189,0.037-0.217,0-0.289
		c-0.842-1.618-1.779-2.605-2.506-2.632c-3.727-0.143-6.637-2.962-6.769-6.557c-0.072-1.947-0.949-2.687-1.799-3.155
		c-0.595-0.329-1.226-0.445-1.981-0.481c-1.859-0.012-3.725-0.724-5.057-2.07c-1.325-1.337-2.038-3.12-2.011-5.024
		c0.03-1.83-0.698-2.523-1.801-3c-0.411-0.179-0.919-0.324-1.477-0.324c-0.675,0-1.423,0.213-2.167,0.84
		c-0.366,0.308-0.643,0.6-0.872,0.918c-1.657,2.31-10.815,17.567-11.513,29.528C949.092,563.936,950.5,567.051,953.048,569.026z"/>
	<path fill="none" d="M971.8,525.062c1.017-2.124,2.154-4.112,2.687-5.459c2.142-5.414,4.015-10.924,5.691-16.499
		c1.765-5.87,3.269-11.817,4.789-17.754c0.19-0.74,0.433-3.379,1.025-4.001c0.983-1.033,3.707-2.327,3.588,0.535
		c-0.428,12.125-2.464,24.214-6.297,35.736c-0.496,1.492-3.503,10.054-6.771,14.789c1.17,0.228,2.292,0.618,3.345,1.199
		c1.752,0.966,3.125,2.292,4.098,3.885c1.944-2.458,4.671-4.671,6.425-6.537c4.494-4.78,9.035-9.512,13.658-14.167
		c4.192-4.221,8.411-8.443,12.868-12.388c0.903-0.799,3.248-3.712,4.835-3.222c1.653,0.51,1.799,1.883,0.926,3.137
		c-7.255,8.654-14.079,17.627-21.571,26.1c-3.752,4.243-7.563,9.608-12.044,13.141c1.351,0.77,2.736,1.988,4.01,3.928
		c0.009-0.007,0.018-0.014,0.027-0.021c5.623-4.414,11.804-8.203,17.784-11.868c9.886-6.062,19.224-11.787,26.319-20.104
		c4.462-5.231,4.741-7.468,4.654-8.187c-0.127-1.053-1.819-2.27-3.61-3.558c-1.512-1.086-3.226-2.318-4.724-3.931
		c-3.53-3.802-2.514-8.896-1.617-13.391c1.348-6.763,1.781-11.164-3.543-15.237c-5.095-3.893-7.88-2.297-12.504,0.358
		c-4.073,2.338-9.141,5.254-15.773,2.84c-7.659-2.779-8.189-9.013-8.543-13.137c-0.364-4.25-0.439-5.134-4.298-5.531
		c-9.248-0.959-12.968,8.08-18.14,43.927c-1.159,8.035-2.62,15.46-4.359,22.175c1.213,0.101,2.431,0.379,3.617,0.893
		C969.706,523.3,970.852,524.102,971.8,525.062z"/>
	<path fill="none" d="M389.434,634.298c0.633,4.808,4.12,13.047,18.34,22.432C407.591,651.162,405.015,640.649,389.434,634.298z"/>
	<path fill="none" d="M684.339,581c1.577,0.772,5.185,1.004,7.863-0.558c1.856-1.084,2.825-2.803,2.97-5.257
		c0.139-2.434-0.75-3.461-1.43-4.019c-2.095-1.722-5.867-1.741-6.854-1.502c-3.169,1.164-4.848,3.057-4.988,5.626
		C681.746,578.135,683.43,580.554,684.339,581z"/>
	<path fill="none" d="M890.268,550.052c1.712,0.387,5.272-0.219,7.519-2.363c1.555-1.482,2.1-3.38,1.672-5.799
		c-0.426-2.402-1.527-3.193-2.319-3.58c-2.439-1.191-6.116-0.329-7.018,0.125c-2.813,1.865-4.006,4.093-3.548,6.625
		C887.081,547.863,889.279,549.828,890.268,550.052z"/>
	<path fill="none" d="M798.236,505.583c-14.409,5.951-18.503,15.148-19.143,22.538c0.349,0.366,0.695,0.736,1.03,1.117
		C794.408,519.245,797.68,510.413,798.236,505.583z"/>
	<path fill="none" d="M209.192,590.213c0.032,7.003,3.906,18.302,23.226,30.754C232.76,613.393,230.482,598.357,209.192,590.213z"/>
	<path fill="none" d="M810.566,634.298c-15.581,6.351-18.157,16.862-18.339,22.432C806.45,647.346,809.935,639.107,810.566,634.298z
		"/>
	<path fill="none" d="M990.808,590.213c-21.284,8.144-23.566,23.18-23.225,30.756C986.899,608.515,990.775,597.216,990.808,590.213z
		"/>
	<path fill="none" d="M801.27,617.58c-0.084,0.018-0.168,0.031-0.252,0.043c-17.882,3.198-35.623,8.243-52.715,15.711
		c-0.006,0.003-0.014,0.005-0.02,0.008l-0.002,0.002c-0.004,0.002-0.007,0.002-0.01,0.003c-6.603,2.876-22.123,7.061-40.785,8.766
		c23.854,12.028,50.206,17.39,77.146,15.675c-0.025-7.707,2.913-23.813,26.293-31.79c1.624-0.551,3.368-0.331,4.808,0.6
		c1.448,0.939,2.369,2.464,2.526,4.186c0.375,4.095-0.382,13.351-11.315,23.977c32.835-6.724,62.717-22.701,86.74-39.464
		C864.237,612.169,832.544,612.018,801.27,617.58z"/>
	<path fill="none" d="M881.197,633.409c11.221,19.301,28.708,22.305,37.152,22.547c-9.236-20.676-29.817-22.547-36.96-22.547
		C881.324,633.409,881.259,633.409,881.197,633.409z"/>
	<path fill="none" d="M1037.813,685.432c5.753,1.45,9.921,1.266,11.742-0.526c1.659-1.632,1.996-5.371,0.902-10.003
		c-0.433-1.834,0.055-3.772,1.308-5.185c1.248-1.41,3.122-2.14,4.988-1.918c3.603,0.396,8.356,0.052,10.601-3.834
		c1.737-3.007,0.842-6.336-2.656-9.896c-1.216-1.236-1.816-2.932-1.649-4.654c0.169-1.722,1.091-3.274,2.529-4.253
		c3.525-2.407,9.076-7.27,6.63-12.786c-0.409-0.922-0.999-1.814-1.751-2.648v-0.003c-2.155-2.399-5.628-4.315-10.05-5.541
		c-3.376-0.934-7.935-1.649-13.984-1.649c-9.916,0-23.83,1.916-43.109,7.903c-2.209,0.685-3.988,2.202-5.098,4.186
		c-0.003,0.011-0.004,0.021-0.007,0.032c-0.129,0.394-0.33,0.74-0.562,1.058c-0.956,2.449-0.774,5.156,0.515,7.433
		c6.395,11.313,19.199,31.484,33.076,39.479C1033.617,683.999,1035.77,684.916,1037.813,685.432z"/>
	<path fill="none" d="M1133.639,651.25c-1.512-0.887-2.526-2.457-2.716-4.201c-0.189-1.744,0.466-3.498,1.751-4.691
		c5-4.634,7.726-9.462,7.292-12.918c-0.306-2.466-2.304-4.716-5.932-6.692c-1.43-0.775-2.444-2.14-2.78-3.74
		c-0.336-1.599,0.042-3.256,1.042-4.547c3.426-4.427,6.53-10.526,4.968-14.358c-1.535-3.765-7.546-5.344-12.317-6.007
		c-27.341-3.772-48.976,16.016-57.043,24.736c2.406,1.099,4.51,2.41,6.283,3.942c4.577-4.875,19.353-6.966,23.648-7.928
		c4.418-0.989,9.093-2.171,13.64-2.358c1.468-0.06,8.028,1.473,3.467,3.284c-8.331,3.259-16.876,5.974-25.307,8.957
		c-1.466,0.519-6.577,2.973-10.795,3.882c0.111,0.222,0.259,0.432,0.36,0.658c2.567,5.784,1.259,11.758-3.444,17.078
		c1.053,0.075,2.022,0.164,2.79,0.18c5.352,0.111,10.703,0.272,16.05,0.512c5.716,0.256,11.433,0.577,17.131,1.106
		c0.862,0.08,4.425-0.09,5.205,0.547c1.039,0.849,2.847,3.223,0.027,3.628c-10.602,1.427-21.378,1.812-32.066,1.87
		c-1.24,0.007-6.31,0.285-10.823-0.16c1.736,3.342,2.209,6.786,1.374,10.094c6.4,1.147,16.638,8.906,20.074,10.867
		c3.786,2.161,7.918,4.223,11.422,6.829c1.049,0.781,5.396,6.038,0.625,4.697c-8.052-2.386-15.81-5.764-23.379-9.371
		c-1.28-0.61-8.427-3.599-12.116-6.792c-2.361,2.61-5.566,4.266-9.433,4.9c1.349,1.36,2.538,2.778,3.43,3.623
		c4.064,3.85,8.189,7.641,12.449,11.274c4.093,3.49,8.601,6.501,12.673,9.993c1.214,1.041,5.651,6.084,0.552,4.919
		c-9.978-4.239-18.882-10.136-27.077-17.212c-0.749-0.647-3.471-2.887-6.077-5.508c-0.355,2.936-1.394,5.78-3.665,8.015
		c-1.065,1.049-2.354,1.828-3.784,2.429c1.339,1.91,2.37,4.24,3.117,5.508c2.716,4.607,5.405,9.227,7.999,13.904
		c2.229,4.019,4.785,8.079,6.507,12.342c0.535,1.323,1.431,8.107-1.879,4.422c-6.109-6.921-11.427-14.584-16.4-22.345
		c-1.055-1.647-5.779-8.166-6.735-12.603c-2.354-0.066-4.951-0.444-7.81-1.166c-0.739-0.186-1.483-0.415-2.233-0.673
		c2.202,12.903,10.772,38.753,25.525,51.821c7.145,6.328,14.849,8.792,22.901,7.365c4.422-0.792,7.531-2.554,9.5-5.386
		c3.299-4.744,2.681-11.6,2.018-15.267c-0.384-2.133,0.461-4.248,2.2-5.523c1.719-1.258,3.964-1.435,5.852-0.438
		c3.834,2.006,8.458,3.466,9.953,1.547c1.831-2.344,1.286-8.63-1.39-16.01c-0.628-1.729-0.369-3.657,0.698-5.152
		c1.061-1.49,2.833-2.357,4.622-2.332c2.843,0.045,12.484-0.194,15.606-4.988c1.809-2.775,1.375-7.113-1.283-12.895
		c-1.106-2.412-0.426-5.2,1.657-6.784c5.426-4.146,11.109-10.603,10.765-16.286C1142.1,658.071,1139.178,654.506,1133.639,651.25z"
		/>
	<path fill="none" d="M479.378,656.287c5.012,7.04,16.424,19.429,33.725,17.552c-7.234-11.537-17.956-17.889-31.195-18.508
		C481.066,655.655,480.225,655.979,479.378,656.287z"/>
	<path fill="none" d="M451.721,633.344c0,0-0.001-0.001-0.001-0.001c-0.006-0.003-0.016-0.006-0.022-0.009
		c-17.098-7.469-34.845-12.515-52.733-15.713c-0.074-0.011-0.147-0.022-0.22-0.038c-31.279-5.564-62.977-5.413-92.431-2.286
		c24.021,16.762,53.903,32.738,86.739,39.462c-10.934-10.626-11.691-19.883-11.313-23.982c0.156-1.717,1.078-3.241,2.526-4.181
		c1.44-0.932,3.193-1.149,4.808-0.6c23.383,7.977,26.318,24.085,26.293,31.791c27.052,1.735,53.426-3.579,77.212-15.528
		c-20.286-1.991-36.339-6.952-40.854-8.915L451.721,633.344z"/>
	<path fill="none" d="M548.038,504.355c-2.277-3.373-4.645-6.882-6.38-10.577c-0.587-1.25-1.662-8.005,1.77-4.484
		c5.634,5.885,10.851,12.16,16.227,18.277c1.046,1.19,4.508,4.411,6.648,7.53c0.075-0.08,0.135-0.177,0.211-0.254
		c3.892-3.979,9.099-5.069,14.878-3.319c-0.681-1.946-1.215-3.861-1.676-5.105c-1.939-5.235-3.761-10.517-5.454-15.836
		c-1.187-3.728-3.538-8.731-3.644-12.702c-0.046-1.729,0.646-5.555,3.093-2.539c4.19,7.483,7.663,15.376,10.99,23.271
		c0.423,1.003,3.119,6.958,4.546,12.171c2.236-2.56,4.962-4.136,8.019-4.589c-1.004-5.833,1.864-16.747,2.392-20.349
		c0.579-3.953,0.637-8.931,2.174-12.627c0.512-1.231,3.48-5.522,3.979-1.418c0.807,7.613,0.595,15.338,0.111,22.963
		c-0.103,1.623-0.243,8.166-1.642,12.288c2.798,1.118,5.176,3.139,6.98,5.936c0.443-0.976,0.877-1.86,1.145-2.527
		c2.142-5.323,4.21-10.683,6.062-16.115c1.383-4.056,2.085-11.161,4.44-14.728c0.907-1.374,3.295-4.588,3.926-0.657
		c-0.052,9.174-1.803,18.1-4.626,26.813c-0.364,1.123-1.4,4.773-2.872,8.341c2.429-0.511,4.97-0.462,7.433,0.621
		c1.121,0.493,2.134,1.178,3.052,2.028c3.084-5.702,10.552-12.994,12.585-15.452c2.622-3.17,5.22-6.496,8.148-9.396
		c0.948-0.938,6.986-4.379,4.852,0.099c-3.734,7.548-8.372,14.664-13.252,21.513c-1.162,1.63-4.82,7.617-8.271,9.879
		c0.703,1.986,1.249,4.238,1.59,6.823c0.068,0.516,0.108,1.046,0.145,1.579c10.219-6.358,28.66-22.02,34.635-38.592
		c2.91-8.073,2.424-15.328-1.45-21.563c-1.527-2.457-6.176-9.923-18.329-4.315c-2.402,1.107-5.172,0.909-7.412-0.536
		c-2.257-1.452-3.595-3.913-3.578-6.579c0.01-1.348-0.135-4.524-1.647-4.967c-1.697-0.483-5.546,0.532-11.279,4.906
		c-1.888,1.438-4.288,1.937-6.582,1.372c-2.29-0.566-4.176-2.12-5.172-4.267c-1.405-3.027-4.347-8.213-8.291-8.954
		c-2.547-0.473-5.579,0.957-9.024,4.262c-2.488,2.389-6.159,2.883-9.133,1.232c-2.89-1.606-10.15-5.1-15.074-2.919
		c-2.599,1.151-4.44,3.974-5.474,8.387c-0.514,2.195-1.951,4.053-3.941,5.102c-1.996,1.05-4.352,1.185-6.466,0.364
		c-4.623-1.798-8.438-2.106-10.747-0.881c-1.583,0.843-2.64,2.534-3.233,5.168c-0.938,4.171-5.101,6.814-9.289,5.9
		c-5.408-1.185-9.592-0.756-11.482,1.181c-1.93,1.978-2.186,6.136-0.74,12.022c5.876,23.92,29.228,35.514,39.51,39.541
		c0.145-2.192,0.512-4.24,1.141-6.111C556.914,519.172,550.311,507.723,548.038,504.355z"/>
	<path fill="none" d="M627.73,537.657c0.354-2.44,0.406-4.538,0.157-6.419c-0.69-5.234-2.182-8.605-4.198-9.492
		c-1.836-0.807-4.983,0.157-8.436,2.574c-1.492,1.046-3.413,1.305-5.132,0.684c-1.722-0.618-3.037-2.039-3.525-3.799
		c-0.846-3.087-2.667-6.879-6.535-7.442c-2.972-0.44-5.354,1.379-7.117,5.379c-0.678,1.538-1.989,2.688-3.599,3.154
		c-1.613,0.466-3.34,0.194-4.739-0.749c-3.137-2.116-8.948-5.104-12.62-1.35c-0.615,0.63-1.152,1.4-1.592,2.287
		c-1.276,2.579-1.714,6.1-1.269,10.184c0.909,8.354,5.888,23.12,24.448,46.034c1.49,1.839,3.697,2.892,6.059,2.892
		c0.004,0,0.009,0,0.012,0c2.307-0.002,4.455-1.029,5.891-2.813C612.931,569.592,625.649,552.034,627.73,537.657z"/>
	<path fill="none" d="M686.885,673.839c17.482,1.968,28.954-10.527,33.974-17.602c-0.984-0.36-1.963-0.735-2.941-1.115
		C704.648,655.742,694.213,662.013,686.885,673.839z"/>
	<path fill="none" d="M574.234,613.921c0.287-14.393-8.234-25.084-25.39-31.827c4.193,21.328,19.598,29.693,25.145,32.058
		C574.071,614.075,574.152,613.997,574.234,613.921z"/>
	<path fill="none" d="M749.101,624.725c2.099-2.663,13.344-18.174,5.565-35.533c-5.209,4.473-13.21,15.211-5.769,35.617
		C748.965,624.781,749.033,624.753,749.101,624.725z"/>
	<path fill="none" d="M651.159,582.094c-17.08,6.72-25.558,17.41-25.271,31.814c0.134,0.124,0.264,0.251,0.399,0.374
		C631.78,611.881,646.987,603.431,651.159,582.094z"/>
	<path fill="#231F20" d="M1149.971,661.387c-0.354-5.822-3.772-10.96-10.175-15.3c3.922-4.093,8.643-10.606,7.768-17.599
		c-0.556-4.432-3.182-8.204-7.82-11.241c3.495-5.02,7.502-12.935,4.607-20.033c-2.337-5.733-8.511-9.33-18.352-10.696
		c-23.907-3.319-43.507,8.687-55.745,19.346c-0.092,0.079-6.606,5.839-10.247,10.351c-14.255-3.133-34.069-0.817-58.967,6.914
		c-3.328,1.035-6.163,3.063-8.222,5.753c-5.008-1.608-10.394-3.252-16.123-4.892c21.185-15.495,22.671-30.128,21.46-37.875
		c-0.239-1.52-1.131-2.855-2.452-3.662c-1.33-0.817-2.942-1.007-4.43-0.523c-27.131,8.896-31.205,27.616-31.327,37.553
		c-14.167-3.557-29.833-6.843-46.455-9.345c16.925-13.257,29.791-25.777,37.24-33.524c2.374,1.279,4.968,1.94,7.603,1.94
		c1.654,0,3.326-0.259,4.968-0.785c1.308-0.419,2.564-0.999,3.727-1.722c2.741-1.699,5.516-3.318,8.182-4.873
		c9.158-5.343,16.537-9.658,18.893-14.846c1.164-0.875,2.379-1.801,3.706-2.843c5.277-4.139,11.266-7.812,17.059-11.363
		c9.961-6.106,20.26-12.421,28.145-21.661c4.926-5.775,6.909-10.116,6.428-14.076c-0.531-4.386-3.832-6.758-6.742-8.851
		c-1.34-0.963-2.606-1.872-3.583-2.925c-0.867-0.933-0.284-3.858,0.279-6.686c1.236-6.192,3.102-15.549-6.398-22.814
		c-9.143-6.996-15.977-3.066-20.965-0.201c-3.867,2.22-6.206,3.426-9.35,2.283c-2.823-1.024-3.174-2.45-3.528-6.595
		c-0.366-4.281-0.977-11.448-11.142-12.493c-17.99-1.845-21.81,17.959-26.496,50.447c-1.445,10.004-3.372,18.968-5.715,26.725
		c-0.45,0.457-0.869,0.928-1.231,1.434c-2.372,3.306-12.126,19.667-12.933,33.544c-0.239,4.098,0.986,8.071,3.339,11.3
		c-8.18,8.488-22.841,22.654-42.132,37.115c-24.539-3.09-50.856-4.277-77.425-1.966c20.666-10.431,49.56-27.784,64.183-49.02
		c0.56,0.073,1.14,0.122,1.753,0.122c3.769,0,8.383-1.405,11.712-4.579c3.403-3.247,4.796-7.748,3.921-12.672
		c-1.004-5.668-4.37-8.219-7.018-9.361c-5.371-2.318-11.872-0.588-13.999,0.808c-5.421,3.56-7.95,8.817-6.934,14.424
		c0.515,2.844,1.945,5.51,3.835,7.549c-21.878,30.982-78.629,54.235-83.451,56.169c-8.164,1.466-16.297,3.324-24.365,5.598
		c10.985-13.27,13.57-27.636,15.574-45.193c1.533-13.415-0.668-25.701-6.078-35.088c21.852-15.286,22.149-29.265,21.166-34.731
		c-0.249-1.381-1.091-2.585-2.307-3.304c-1.228-0.726-2.713-0.878-4.063-0.426c-18.409,6.206-24.932,17.006-27.061,25.611
		c-6.081-3.742-13.142-5.377-20.535-4.601c-15.795,1.648-21.67,10.085-23.768,14.967c-3.314,7.721-2.03,17.159,3.269,24.048
		c4.602,5.979,11.276,8.797,18.354,7.773c2.09-0.309,3.535-2.255,3.229-4.345c-0.311-2.09-2.272-3.535-4.345-3.229
		c-5.783,0.87-9.49-2.681-11.171-4.867c-3.58-4.653-4.504-11.229-2.302-16.362c2.514-5.851,8.573-9.439,17.529-10.374
		c7.768-0.807,15.128,1.816,20.664,7.408c7.977,8.055,11.555,21.415,9.816,36.652c-2.638,23.105-6.552,36.258-21.645,49.02
		c3.833-8.928,6.436-22.133-1.5-36.124c-0.64-1.136-1.742-1.971-3.025-2.29c-1.328-0.324-2.748-0.097-3.914,0.648
		c-3.934,2.543-22.277,16.384-11.172,46.656c-8.147,2.682-26.508,7.225-47.463,7.702c-0.128,0.003-0.255,0.007-0.383,0.01
		c-12.656,0.258-26.226-0.991-39.06-5.032c9.875-4.651,23.886-15.568,32.791-41.03c2.786-0.013,5.777-0.659,8.401-2.192
		c4.063-2.369,6.46-6.425,6.749-11.421c0.334-5.75-2.354-9.011-4.666-10.733c-4.696-3.503-11.411-3.319-13.805-2.449
		c-6.099,2.21-9.771,6.739-10.08,12.43c-0.275,5.042,2.248,10.217,5.947,12.522c-11.619,32.516-31.743,37.761-36.407,38.55
		c-3.911-1.857-7.577-3.973-10.966-6.375c8.674-4.733,23.635-16.285,26.555-40.584c0.214-1.774-0.488-3.51-1.878-4.644
		c-1.39-1.136-3.234-1.475-4.943-0.904c-23.335,7.828-31.617,20.885-33.731,32.823c-4.476-5.679-8.133-12.167-10.944-19.449
		c1.348-0.87,2.571-1.951,3.606-3.237c9.178-11.403,20.441-27.819,23.408-42.635c11.113-5.156,35.151-24.613,42.55-45.125
		c3.745-10.387,3.022-19.874-2.148-28.199c-6.189-9.962-16.403-12.599-28.168-7.341c0.06-8.923-4.46-11.576-7.158-12.364
		c-4.791-1.398-10.867,0.678-18.234,6.135c-3.543-7.637-8.321-12.22-13.82-13.253c-5.102-0.963-10.407,1.146-15.854,6.323
		c-4.836-2.684-14.106-6.671-21.891-3.224c-4.909,2.175-8.215,6.764-10.007,13.718c-4.762-1.854-11.595-3.442-17.12-0.503
		c-3.616,1.927-6.005,5.374-7.284,10.347c-8.279-1.814-14.714-0.67-18.601,3.314c-3.926,4.026-4.832,10.483-2.692,19.192
		c7.338,29.874,37.149,42.467,47.368,45.905c2.186,13.2,10.841,29.21,25.777,47.649c1.228,1.516,2.713,2.744,4.355,3.682
		c-2.767,7.116-6.349,13.464-10.711,19.039c-2.135-11.918-10.454-24.955-33.845-32.802c-1.702-0.573-3.545-0.227-4.935,0.909
		c-1.389,1.131-2.09,2.868-1.877,4.641c2.926,24.342,18.085,35.823,26.854,40.502c-3.361,2.409-6.995,4.537-10.876,6.403
		c-4.664-0.759-25.13-5.905-36.796-38.496c3.697-2.304,6.221-7.481,5.948-12.522c-0.308-5.69-3.982-10.22-10.083-12.43
		c-2.389-0.867-9.106-1.051-13.804,2.449c-2.313,1.724-5,4.985-4.666,10.733c0.29,4.993,2.687,9.051,6.749,11.421
		c2.625,1.534,5.616,2.179,8.402,2.192c8.947,25.548,23.159,36.431,33.148,41.038c-34.261,10.898-74.093,1.654-87.263-2.687
		c11.108-30.272-7.238-44.114-11.179-46.662c-1.147-0.735-2.566-0.972-3.898-0.645c-1.284,0.319-2.388,1.151-3.026,2.28
		c-7.939,13.999-5.337,27.208-1.505,36.138c-15.094-12.76-19.008-25.916-21.646-49.021c-1.739-15.24,1.837-28.597,9.815-36.652
		c5.537-5.591,12.879-8.214,20.665-7.408c8.954,0.936,15.014,4.522,17.527,10.374c2.204,5.134,1.279,11.708-2.301,16.362
		c-1.68,2.186-5.364,5.727-11.173,4.867c-2.098-0.299-4.036,1.139-4.344,3.229c-0.308,2.09,1.137,4.036,3.228,4.345
		c7.062,1.021,13.751-1.794,18.355-7.773c5.299-6.889,6.581-16.329,3.267-24.049c-2.097-4.881-7.97-13.318-23.765-14.966
		c-7.393-0.778-14.455,0.858-20.537,4.601c-2.128-8.604-8.651-19.405-27.06-25.611c-1.353-0.455-2.838-0.3-4.067,0.429
		c-1.217,0.72-2.055,1.926-2.301,3.3c-0.986,5.467-0.736,19.451,21.153,34.751c-5.401,9.384-7.597,21.662-6.066,35.069
		c2.004,17.556,4.59,31.923,15.573,45.192c-8.069-2.275-16.203-4.133-24.368-5.599c-4.841-1.941-61.575-25.192-83.449-56.168
		c1.89-2.039,3.32-4.705,3.835-7.549c1.016-5.607-1.511-10.864-6.934-14.424c-2.126-1.395-8.619-3.128-13.999-0.808
		c-2.648,1.142-6.015,3.694-7.02,9.361c-0.873,4.925,0.521,9.426,3.924,12.672c3.328,3.177,7.943,4.579,11.712,4.579
		c0.613,0,1.192-0.05,1.752-0.123c14.624,21.236,43.517,38.589,64.183,49.019c-26.57-2.312-52.887-1.124-77.427,1.966
		c-19.291-14.462-33.951-28.628-42.128-37.116c2.351-3.229,3.578-7.201,3.339-11.298c-0.808-13.868-10.561-30.236-12.932-33.543
		v-0.001c-0.363-0.505-0.782-0.976-1.233-1.434c-2.344-7.765-4.273-16.73-5.714-26.725c-4.688-32.484-8.493-52.293-26.497-50.447
		c-10.162,1.045-10.775,8.21-11.142,12.492c-0.354,4.146-0.706,5.572-3.53,6.597c-3.138,1.137-5.481-0.061-9.349-2.285
		c-4.989-2.866-11.827-6.789-20.964,0.201c-9.498,7.264-7.634,16.62-6.399,22.812c0.564,2.828,1.147,5.753,0.28,6.687
		c-0.979,1.054-2.243,1.963-3.583,2.926c-2.911,2.092-6.211,4.463-6.743,8.851c-0.48,3.959,1.502,8.3,6.429,14.075
		c7.883,9.241,18.182,15.554,28.142,21.659c5.795,3.553,11.787,7.225,17.061,11.365c1.328,1.043,2.544,1.969,3.709,2.844
		c2.354,5.187,9.733,9.502,18.893,14.846c2.665,1.555,5.441,3.174,8.18,4.873c1.166,0.725,2.42,1.303,3.723,1.722
		c1.643,0.526,3.315,0.785,4.973,0.785c2.634,0,5.229-0.661,7.602-1.94c7.449,7.747,20.314,20.267,37.237,33.523
		c-16.622,2.502-32.287,5.787-46.453,9.345c-0.12-9.935-4.19-28.655-31.328-37.552c-1.484-0.486-3.096-0.296-4.428,0.523
		c-1.32,0.807-2.214,2.143-2.45,3.662c-1.211,7.747,0.274,22.38,21.459,37.875c-5.729,1.641-11.114,3.284-16.122,4.892
		c-2.059-2.69-4.896-4.718-8.225-5.752c-24.876-7.725-44.674-10.044-58.93-6.923c-6.477-7.711-31.682-34.466-66.026-29.688
		c-9.88,1.37-16.063,4.99-18.379,10.76c-2.839,7.071,1.079,14.886,4.632,19.971c-4.638,3.034-7.264,6.806-7.818,11.241
		c-0.871,6.968,3.755,13.426,7.766,17.599c-6.39,4.33-9.809,9.455-10.171,15.265c-0.603,9.664,7.563,17.838,12.462,21.837
		c-3.208,7.678-3.236,14.007-0.078,18.827c4.22,6.445,12.818,8.117,19.204,8.393c-1.968,6.351-3.512,15.207,0.691,20.591
		c2.014,2.581,6.63,5.917,16,2.168c-0.429,5.07,0.005,11.637,3.662,17.014c3.139,4.617,8.035,7.546,14.55,8.712
		c1.982,0.354,3.94,0.531,5.877,0.531c8.295,0,16.158-3.249,23.442-9.699c17.938-15.886,28-48.431,28.647-61.661
		c13.893-8.96,26.094-27.142,34.016-41.154c1.911-3.381,2.519-7.258,1.82-11.002c7.925-2.53,16.795-5.15,26.445-7.68
		c0.055-0.013,0.109-0.027,0.163-0.042c17.277-4.525,37.005-8.73,58.14-11.547c4.572,3.361,9.4,6.721,14.434,10.025
		c-11.889,2.081-29.175,8.915-36.582,30.598c-0.476,1.385-0.289,2.885,0.512,4.113c0.796,1.218,2.08,1.988,3.525,2.11
		c0.756,0.062,1.922,0.132,3.414,0.132c9.403,0,31.677-2.804,45.365-27.013c23.754,13.524,51.23,24.616,80.66,28.033
		c0.286,0.063,0.571,0.103,0.858,0.1c0.898,0.099,1.789,0.229,2.69,0.314c5.165,0.488,10.306,0.73,15.422,0.73
		c15.912,0,31.52-2.364,46.469-6.971c4.71,7.177,17.333,22.896,37.567,22.896c2.763,0,5.67-0.294,8.717-0.944
		c1.577-0.334,2.926-1.41,3.61-2.88c0.684-1.472,0.638-3.201-0.126-4.629c-6.294-11.756-15.679-19.776-27.09-23.42
		c4.208-2.059,8.34-4.314,12.388-6.762c0.82,0.013,1.632,0.039,2.459,0.039c15.665,0,32.51-2.312,47.908-9.089
		c0.461-0.203,0.901-0.427,1.356-0.636c0.011-0.005,0.021-0.011,0.033-0.015c6.782-3.128,12.829-7.028,18.208-11.602
		c0.189-0.119,0.352-0.262,0.518-0.414c0.945-0.818,1.827-1.697,2.727-2.559c0.376-0.254,0.692-0.567,0.957-0.937
		c7.87-7.819,14.037-17.339,18.313-28.631c0.083,0.001,0.163,0.014,0.246,0.014c0.007,0,0.016,0,0.025,0
		c0.322,0,0.638-0.034,0.956-0.055c4.373,11.49,10.635,21.217,18.738,29.108c0.015,0.016,0.031,0.028,0.047,0.044
		c1.212,1.179,2.474,2.308,3.768,3.404c0.033,0.025,0.06,0.055,0.094,0.079c5.411,4.569,11.531,8.425,18.351,11.544
		c0.067,0.03,0.127,0.066,0.196,0.092c0.322,0.146,0.631,0.306,0.956,0.449c15.11,6.652,32.239,8.974,48.368,8.974
		c0.652,0,1.294-0.02,1.943-0.027c4.025,2.442,8.132,4.689,12.31,6.747c-9.471,3.014-19.53,9.716-26.993,23.657
		c-0.762,1.425-0.805,3.157-0.12,4.627c0.683,1.47,2.033,2.544,3.605,2.878c3.077,0.655,6.007,0.952,8.797,0.952
		c20.336,0,32.996-15.756,37.714-22.949c14.966,4.63,30.561,7.007,46.433,7.007c5.055,0,10.137-0.239,15.232-0.72
		c0.904-0.085,1.797-0.215,2.697-0.315c0.273,0.002,0.543-0.038,0.814-0.095c29.443-3.412,56.933-14.508,80.697-28.038
		c13.691,24.211,35.963,27.014,45.367,27.014c1.49,0,2.658-0.07,3.416-0.132c1.445-0.122,2.731-0.892,3.525-2.115
		c0.802-1.231,0.987-2.731,0.513-4.103c-7.41-21.686-24.695-28.523-36.584-30.605c5.033-3.304,9.861-6.664,14.433-10.025
		c21.131,2.816,40.855,7.021,58.129,11.545c0.061,0.017,0.122,0.034,0.185,0.048c9.646,2.53,18.513,5.15,26.436,7.679
		c-0.7,3.744-0.092,7.62,1.819,11.001c7.92,14.011,20.121,32.194,34.013,41.152c0.647,13.227,10.705,45.771,28.645,61.66
		c7.285,6.453,15.148,9.701,23.444,9.701c1.936,0,3.896-0.177,5.877-0.531c6.438-1.151,11.293-4.029,14.44-8.55
		c3.702-5.324,4.253-11.787,3.779-17.178c9.398,3.742,13.999,0.384,15.992-2.165c4.088-5.239,2.865-13.635,0.693-20.594
		c6.281-0.284,15.001-1.933,19.224-8.421c3.137-4.818,3.102-11.139-0.1-18.8C1142.28,679.283,1150.556,671.059,1149.971,661.387z
		 M969.093,499.645c5.172-35.847,8.892-44.886,18.14-43.927c3.859,0.397,3.934,1.281,4.298,5.531
		c0.354,4.125,0.884,10.358,8.543,13.137c6.632,2.414,11.7-0.502,15.773-2.84c4.624-2.655,7.409-4.25,12.504-0.358
		c5.324,4.073,4.891,8.474,3.543,15.237c-0.897,4.496-1.913,9.589,1.617,13.391c1.497,1.613,3.211,2.845,4.724,3.931
		c1.791,1.288,3.483,2.505,3.61,3.558c0.087,0.719-0.192,2.956-4.654,8.187c-7.096,8.318-16.433,14.043-26.319,20.104
		c-5.979,3.665-12.16,7.454-17.784,11.868c-0.009,0.007-0.018,0.014-0.027,0.021c-1.274-1.94-2.66-3.159-4.01-3.928
		c4.482-3.532,8.292-8.897,12.044-13.141c7.493-8.473,14.316-17.446,21.571-26.1c0.873-1.253,0.727-2.627-0.926-3.137
		c-1.588-0.49-3.933,2.423-4.835,3.222c-4.457,3.945-8.676,8.166-12.868,12.388c-4.623,4.655-9.164,9.388-13.658,14.167
		c-1.755,1.866-4.481,4.079-6.425,6.537c-0.972-1.594-2.345-2.919-4.098-3.885c-1.053-0.581-2.175-0.971-3.345-1.199
		c3.268-4.735,6.275-13.296,6.771-14.789c3.833-11.522,5.87-23.611,6.297-35.736c0.119-2.863-2.605-1.568-3.588-0.535
		c-0.592,0.622-0.835,3.26-1.025,4.001c-1.52,5.937-3.024,11.883-4.789,17.754c-1.676,5.575-3.549,11.085-5.691,16.499
		c-0.533,1.347-1.669,3.334-2.687,5.459c-0.948-0.96-2.094-1.763-3.45-2.35c-1.186-0.513-2.404-0.792-3.617-0.893
		C966.473,515.105,967.934,507.679,969.093,499.645z M960.792,531.169c0.229-0.318,0.506-0.61,0.872-0.918
		c0.745-0.627,1.492-0.84,2.167-0.84c0.558,0,1.066,0.145,1.477,0.324c1.104,0.477,1.831,1.17,1.801,3
		c-0.027,1.903,0.685,3.687,2.011,5.024c1.333,1.347,3.199,2.058,5.057,2.07c0.755,0.036,1.385,0.152,1.981,0.481
		c0.85,0.468,1.727,1.208,1.799,3.155c0.132,3.595,3.042,6.414,6.769,6.557c0.727,0.027,1.664,1.014,2.506,2.632
		c0.037,0.072,0.052,0.1,0,0.289c-0.737,2.788-9.133,7.683-15.878,11.62c-2.723,1.587-5.558,3.241-8.364,4.983
		c-0.63,0.391-1.31,0.705-2.023,0.932c-2.713,0.874-5.598,0.344-7.92-1.452c-2.549-1.976-3.956-5.09-3.77-8.329
		C949.976,548.736,959.135,533.479,960.792,531.169z M890.121,538.434c0.902-0.453,4.579-1.315,7.018-0.125
		c0.792,0.387,1.893,1.178,2.319,3.58c0.429,2.419-0.117,4.316-1.672,5.799c-2.247,2.144-5.807,2.75-7.519,2.363
		c-0.989-0.224-3.187-2.189-3.695-4.993C886.115,542.528,887.308,540.299,890.121,538.434z M779.093,528.121
		c0.64-7.39,4.734-16.587,19.143-22.538c-0.556,4.83-3.828,13.662-18.113,23.655C779.788,528.857,779.442,528.487,779.093,528.121z
		 M686.888,569.664c0.987-0.239,4.759-0.219,6.854,1.502c0.68,0.558,1.57,1.585,1.43,4.019c-0.145,2.454-1.114,4.173-2.97,5.257
		c-2.678,1.562-6.286,1.33-7.863,0.558c-0.909-0.446-2.594-2.865-2.439-5.71C682.04,572.721,683.719,570.828,686.888,569.664z
		 M507.798,580.442c-1.855-1.084-2.825-2.803-2.967-5.257c-0.142-2.434,0.747-3.461,1.428-4.019c1.541-1.266,3.99-1.609,5.57-1.609
		c0.569,0,1.025,0.045,1.284,0.107c3.17,1.164,4.849,3.057,4.988,5.626c0.154,2.845-1.531,5.264-2.439,5.71
		C514.086,581.772,510.478,582.004,507.798,580.442z M401.764,505.583c14.407,5.951,18.501,15.148,19.144,22.537
		c-0.349,0.366-0.695,0.736-1.03,1.117C405.591,519.244,402.318,510.414,401.764,505.583z M309.732,550.052
		c-1.71,0.387-5.271-0.219-7.518-2.363c-1.555-1.482-2.102-3.38-1.672-5.8c0.425-2.4,1.526-3.191,2.318-3.579
		c0.911-0.446,1.996-0.604,3.044-0.604c1.755,0,3.409,0.445,3.973,0.727c2.814,1.866,4.009,4.096,3.55,6.627
		C312.92,547.864,310.72,549.828,309.732,550.052z M206.94,547.484c-0.009-0.007-0.018-0.014-0.027-0.021
		c-5.624-4.412-11.807-8.203-17.787-11.869c-9.886-6.06-19.224-11.784-26.319-20.102c-4.462-5.231-4.741-7.468-4.654-8.187
		c0.128-1.053,1.82-2.27,3.613-3.558c1.511-1.086,3.225-2.318,4.724-3.931c3.53-3.801,2.514-8.897,1.618-13.392
		c-1.349-6.763-1.784-11.164,3.542-15.236c5.099-3.897,7.887-2.293,12.503,0.358c4.073,2.339,9.141,5.251,15.773,2.841
		c7.659-2.78,8.192-9.014,8.544-13.14c0.364-4.249,0.438-5.134,4.298-5.53c9.223-0.965,12.968,8.081,18.139,43.927
		c1.159,8.029,2.622,15.454,4.361,22.173c-1.214,0.101-2.431,0.38-3.618,0.895c-1.371,0.594-2.53,1.407-3.484,2.382
		c-1.823-5.22-4.663-10.748-5.208-12.29c-3.632-10.29-6.245-20.894-8.949-31.454c-0.723-2.777-2.948-0.733-3.588,0.535
		c-0.601,1.192,0.251,5.028,0.357,6.322c0.531,6.451,1.544,12.871,3.04,19.169c0.869,3.658,4.016,18.794,8.785,25.226
		c-0.852,0.237-1.673,0.573-2.457,1.006c-1.797,0.991-3.192,2.359-4.168,4.005c-3.242-4.393-7.908-8.325-11.623-12.213
		c-7.808-8.175-15.685-17.083-24.743-23.907c-2.372-1.697-2.641,1.386-2.39,2.701c0.159,0.835,2.102,2.628,2.613,3.275
		c3.678,4.658,7.371,9.291,11.191,13.834c4.233,5.033,8.57,9.981,13.011,14.832c1.907,2.083,4.181,5.348,6.818,7.479
		C209.534,544.386,208.184,545.59,206.94,547.484z M239.027,570.479c-0.708-0.227-1.388-0.541-2.023-0.934
		c-2.8-1.739-5.636-3.393-8.359-4.98c-6.745-3.936-15.14-8.832-15.879-11.619c-0.05-0.191-0.036-0.218,0-0.286
		c0.842-1.623,1.779-2.608,2.504-2.636c3.728-0.143,6.64-2.962,6.772-6.557c0.071-1.946,0.949-2.687,1.8-3.155
		c0.585-0.324,1.222-0.481,1.946-0.481c0.012,0,0.025,0,0.037,0c1.918,0.083,3.722-0.725,5.056-2.072
		c1.324-1.338,2.038-3.123,2.008-5.025c-0.03-1.827,0.699-2.52,1.801-2.997c0.911-0.399,2.283-0.633,3.644,0.513
		c0.369,0.311,0.647,0.604,0.873,0.921c1.657,2.312,10.815,17.576,11.511,29.528c0.189,3.239-1.22,6.353-3.769,8.329
		C244.636,570.82,241.749,571.356,239.027,570.479z M140.766,744.002c-7.143,6.326-14.849,8.8-22.896,7.362
		c-4.473-0.8-7.604-2.594-9.569-5.484c-3.368-4.95-2.585-12.068-1.819-15.87c0.405-2.006-0.366-4.004-2.011-5.214
		c-1.649-1.211-3.792-1.355-5.587-0.364c-3.874,2.128-8.958,3.894-10.541,1.864c-1.887-2.419-1.271-8.892,1.57-16.491
		c0.605-1.617,0.369-3.423-0.632-4.826c-1.008-1.413-2.652-2.28-4.395-2.187c-2.961,0.055-12.851-0.05-16.068-4.965
		c-2.297-3.508-0.512-9.091,1.393-13.162c1.043-2.232,0.379-4.918-1.57-6.375c-5.54-4.168-11.331-10.681-10.971-16.456
		c0.242-3.859,3.29-7.492,9.064-10.8c1.452-0.832,2.425-2.319,2.605-3.979c0.177-1.637-0.447-3.274-1.672-4.382
		c-1.958-1.769-8.296-7.95-7.636-13.232c0.316-2.529,2.407-4.831,6.209-6.839c1.394-0.732,2.379-2.03,2.704-3.56
		c0.319-1.505-0.046-3.064-1.005-4.28c-3.555-4.495-6.792-10.698-5.213-14.629c1.519-3.782,7.543-5.369,12.329-6.034
		c27.337-3.772,48.974,16.017,57.041,24.737c-2.517,1.149-4.693,2.538-6.517,4.161c-3.567-2.842-11.158-4.841-12.871-5.366
		c-8.69-2.663-17.772-4.707-26.854-5.395c-4.894-0.312,0.362,3.885,1.666,4.479c4.087,1.862,8.585,3.052,12.821,4.529
		c5.612,1.957,11.271,3.818,16.813,5.971c1.052,0.409,2.463,1.1,3.912,1.571c-0.081,0.166-0.193,0.322-0.268,0.49
		c-2.566,5.783-1.254,11.757,3.45,17.078c-4.039-0.085-8.108,0.305-9.232,0.338c-10.653,0.318-21.36,0.723-31.947,2.005
		c-2.824,0.363-1.056,2.764-0.027,3.628c0.774,0.65,4.352,0.516,5.214,0.602c5.71,0.573,11.448,0.897,17.183,1.087
		c3.343,0.111,13.085,1.432,20.123,0.708c-1.531,3.288-1.811,6.658-0.868,9.886c-4.668,1.241-10.964,5.257-12.245,5.952
		c-7.314,3.969-14.615,8.056-21.544,12.674c-4.1,2.786,2.725,2.839,4.013,2.516c4.25-1.065,8.5-3.079,12.519-4.79
		c3.663-1.56,16.33-5.491,20.821-10.233c2.434,2.523,5.705,4.086,9.631,4.62c-3.528,2.814-6.931,6.334-7.556,6.913
		c-7.61,7.048-15.617,13.464-23.911,19.68c-2.216,1.66,0.351,3.039,1.818,3.137c0.83,0.055,2.647-1.139,3.394-1.484
		c4.908-2.267,9.54-5.004,13.969-8.104c4.583-3.209,8.904-6.783,13.026-10.561c0.776-0.712,1.779-1.522,2.805-2.398
		c0.376,2.871,1.418,5.645,3.642,7.835c1.115,1.098,2.462,1.912,3.976,2.52c-2.696,3.4-5.077,8.425-5.906,9.844
		c-4.623,7.92-9.228,15.921-13.067,24.258c-2.042,4.514,3.807,0.958,4.804-0.081c3.193-3.328,5.827-7.397,8.494-11.154
		c2.441-3.439,12.667-15.204,13.229-21.744c2.261-0.094,4.739-0.466,7.456-1.152c0.739-0.186,1.484-0.415,2.234-0.674
		C164.091,705.082,155.519,730.934,140.766,744.002z M201.841,643.148c-6.397,11.313-19.199,31.484-33.076,39.479
		c-2.381,1.37-4.532,2.287-6.579,2.805c-5.751,1.45-9.922,1.266-11.743-0.526c-1.657-1.632-1.993-5.371-0.899-10.003
		c0.434-1.834-0.055-3.772-1.307-5.182c-1.109-1.253-2.698-1.958-4.345-1.958c-0.213,0-0.426,0.012-0.64,0.035
		c-3.595,0.411-8.36,0.06-10.606-3.832c-1.736-3.007-0.842-6.336,2.657-9.896c1.216-1.238,1.816-2.935,1.647-4.656
		c-0.169-1.722-1.092-3.274-2.526-4.25c-3.527-2.407-9.077-7.27-6.631-12.786c0.407-0.917,0.997-1.809,1.75-2.648
		c2.156-2.402,5.632-4.318,10.05-5.543c8.913-2.466,26.048-3.388,57.094,6.253c2.211,0.688,3.991,2.205,5.1,4.19
		c0.003,0.009,0.003,0.019,0.006,0.028c0.128,0.392,0.328,0.737,0.559,1.054C203.312,638.16,203.129,640.869,201.841,643.148z
		 M209.192,590.213c21.29,8.144,23.569,23.18,23.226,30.754C213.098,608.515,209.224,597.216,209.192,590.213z M445.333,589.192
		c5.214,4.483,13.205,15.221,5.769,35.617c-0.068-0.028-0.136-0.056-0.204-0.084C448.8,622.059,437.558,606.552,445.333,589.192z
		 M281.649,655.956c9.231-20.679,29.817-22.547,36.96-22.547c0.066,0,0.131,0,0.194,0
		C307.582,652.712,290.092,655.714,281.649,655.956z M389.434,634.298c15.581,6.351,18.157,16.864,18.34,22.432
		C393.554,647.346,390.067,639.107,389.434,634.298z M513.103,673.839c-17.301,1.877-28.713-10.512-33.725-17.552
		c0.847-0.309,1.688-0.633,2.53-0.957C495.148,655.95,505.869,662.302,513.103,673.839z M415.367,657.788
		c0.025-7.706-2.91-23.814-26.293-31.791c-1.616-0.548-3.368-0.331-4.808,0.6c-1.449,0.939-2.371,2.464-2.526,4.181
		c-0.377,4.099,0.379,13.356,11.313,23.982c-32.836-6.724-62.718-22.7-86.739-39.462c29.454-3.127,61.152-3.278,92.431,2.286
		c0.073,0.015,0.146,0.027,0.22,0.038c17.888,3.198,35.635,8.243,52.733,15.713c0.006,0.003,0.016,0.006,0.022,0.009
		c0,0,0.001,0.001,0.001,0.001l0.004,0.001c4.515,1.963,20.568,6.924,40.854,8.915C468.793,654.209,442.419,659.523,415.367,657.788
		z M548.843,582.094c17.156,6.743,25.678,17.434,25.39,31.827c-0.082,0.077-0.163,0.154-0.245,0.23
		C568.442,611.787,553.036,603.421,548.843,582.094z M561.423,527.679c-10.282-4.026-33.634-15.621-39.51-39.541
		c-1.446-5.886-1.19-10.044,0.74-12.022c1.89-1.937,6.074-2.366,11.482-1.181c4.188,0.914,8.351-1.729,9.289-5.9
		c0.593-2.635,1.649-4.325,3.233-5.168c2.308-1.226,6.124-0.917,10.747,0.881c2.114,0.821,4.471,0.686,6.466-0.364
		c1.991-1.049,3.427-2.907,3.941-5.102c1.034-4.414,2.875-7.236,5.474-8.387c4.924-2.181,12.184,1.313,15.074,2.919
		c2.975,1.651,6.646,1.157,9.133-1.232c3.444-3.305,6.476-4.735,9.024-4.262c3.944,0.741,6.886,5.927,8.291,8.954
		c0.997,2.146,2.883,3.701,5.172,4.267c2.295,0.566,4.694,0.066,6.582-1.372c5.733-4.374,9.582-5.389,11.279-4.906
		c1.512,0.442,1.657,3.619,1.647,4.967c-0.017,2.666,1.32,5.126,3.578,6.579c2.24,1.445,5.01,1.643,7.412,0.536
		c12.153-5.608,16.802,1.859,18.329,4.315c3.874,6.235,4.36,13.49,1.45,21.563c-5.975,16.572-24.416,32.234-34.635,38.592
		c-0.036-0.533-0.077-1.063-0.145-1.579c-0.342-2.585-0.887-4.837-1.59-6.823c3.451-2.263,7.109-8.249,8.271-9.879
		c4.88-6.848,9.518-13.964,13.252-21.513c2.134-4.478-3.904-1.038-4.852-0.099c-2.928,2.899-5.526,6.226-8.148,9.396
		c-2.034,2.458-9.501,9.749-12.585,15.452c-0.918-0.85-1.931-1.535-3.052-2.028c-2.463-1.083-5.004-1.133-7.433-0.621
		c1.472-3.568,2.508-7.219,2.872-8.341c2.824-8.712,4.575-17.639,4.626-26.813c-0.63-3.93-3.019-0.716-3.926,0.657
		c-2.356,3.567-3.057,10.672-4.44,14.728c-1.853,5.432-3.92,10.791-6.062,16.115c-0.268,0.667-0.702,1.551-1.145,2.527
		c-1.804-2.796-4.182-4.817-6.98-5.936c1.399-4.122,1.539-10.665,1.642-12.288c0.484-7.625,0.696-15.35-0.111-22.963
		c-0.5-4.104-3.467,0.187-3.979,1.418c-1.537,3.696-1.595,8.674-2.174,12.627c-0.528,3.601-3.396,14.516-2.392,20.349
		c-3.057,0.453-5.784,2.03-8.019,4.589c-1.427-5.213-4.124-11.168-4.546-12.171c-3.327-7.895-6.8-15.788-10.99-23.271
		c-2.448-3.016-3.139,0.81-3.093,2.539c0.106,3.97,2.457,8.974,3.644,12.702c1.694,5.319,3.515,10.601,5.454,15.836
		c0.461,1.244,0.995,3.159,1.676,5.105c-5.78-1.75-10.986-0.661-14.878,3.319c-0.076,0.078-0.136,0.175-0.211,0.254
		c-2.14-3.119-5.602-6.34-6.648-7.53c-5.377-6.117-10.593-12.392-16.227-18.277c-3.432-3.521-2.358,3.234-1.77,4.484
		c1.736,3.695,4.104,7.203,6.38,10.577c2.273,3.368,8.876,14.817,14.526,17.213C561.934,523.439,561.567,525.487,561.423,527.679z
		 M599.644,581.593c-0.004,0-0.009,0-0.012,0c-2.362,0-4.569-1.054-6.059-2.892c-18.56-22.913-23.539-37.68-24.448-46.034
		c-0.445-4.083-0.006-7.605,1.269-10.184c0.44-0.887,0.977-1.657,1.592-2.287c3.672-3.753,9.484-0.766,12.62,1.35
		c1.399,0.943,3.125,1.215,4.739,0.749c1.609-0.466,2.921-1.616,3.599-3.154c1.763-4,4.144-5.819,7.117-5.379
		c3.868,0.563,5.689,4.355,6.535,7.442c0.488,1.76,1.804,3.182,3.525,3.799c1.719,0.622,3.64,0.362,5.132-0.684
		c3.453-2.417,6.6-3.381,8.436-2.574c2.016,0.887,3.508,4.258,4.198,9.492c0.249,1.881,0.197,3.979-0.157,6.419
		c-2.08,14.377-14.799,31.935-22.195,41.123C604.099,580.564,601.951,581.59,599.644,581.593z M651.159,582.094
		c-4.172,21.338-19.379,29.788-24.872,32.188c-0.135-0.123-0.265-0.25-0.399-0.374C625.6,599.503,634.079,588.813,651.159,582.094z
		 M754.666,589.192c7.778,17.359-3.466,32.87-5.565,35.533c-0.068,0.028-0.136,0.056-0.204,0.084
		C741.456,604.403,749.458,593.664,754.666,589.192z M686.885,673.839c7.328-11.826,17.762-18.098,31.033-18.717
		c0.978,0.38,1.957,0.755,2.941,1.115C715.839,663.313,704.367,675.807,686.885,673.839z M792.226,656.731
		c0.182-5.571,2.758-16.082,18.339-22.432C809.935,639.107,806.45,647.346,792.226,656.731z M918.348,655.956
		c-8.443-0.242-25.93-3.246-37.152-22.547c0.062,0,0.127,0,0.192,0C888.531,633.409,909.113,635.28,918.348,655.956z
		 M806.947,654.76c10.933-10.626,11.69-19.882,11.315-23.977c-0.157-1.722-1.079-3.246-2.526-4.186
		c-1.44-0.932-3.184-1.151-4.808-0.6c-23.38,7.977-26.318,24.083-26.293,31.79c-26.94,1.715-53.292-3.647-77.146-15.675
		c18.662-1.705,34.182-5.889,40.785-8.766c0.003-0.001,0.006-0.001,0.008-0.003l0.003-0.002c0.006-0.003,0.014-0.005,0.02-0.008
		c17.092-7.467,34.832-12.513,52.715-15.711c0.084-0.012,0.168-0.025,0.252-0.043c31.274-5.562,62.967-5.411,92.417-2.284
		C869.664,632.058,839.782,648.035,806.947,654.76z M990.808,590.213c-0.032,7.003-3.909,18.302-23.225,30.756
		C967.242,613.393,969.524,598.357,990.808,590.213z M998.16,643.148c-1.288-2.277-1.471-4.984-0.515-7.433
		c0.232-0.318,0.433-0.664,0.562-1.058c0.003-0.011,0.004-0.021,0.007-0.032c1.11-1.984,2.889-3.5,5.098-4.186
		c19.278-5.987,33.193-7.903,43.109-7.903c6.049,0,10.608,0.715,13.984,1.649c4.422,1.226,7.895,3.142,10.05,5.541v0.003
		c0.752,0.835,1.343,1.727,1.751,2.648c2.447,5.516-3.104,10.379-6.63,12.786c-1.438,0.979-2.359,2.531-2.529,4.253
		c-0.167,1.722,0.433,3.418,1.649,4.654c3.498,3.56,4.392,6.889,2.656,9.896c-2.245,3.887-6.998,4.23-10.601,3.834
		c-1.866-0.222-3.74,0.508-4.988,1.918c-1.253,1.413-1.741,3.351-1.308,5.185c1.094,4.632,0.757,8.371-0.902,10.003
		c-1.821,1.791-5.989,1.976-11.742,0.526c-2.043-0.516-4.196-1.433-6.577-2.805C1017.359,674.631,1004.555,654.461,998.16,643.148z
		 M1131.564,678.134c-2.083,1.585-2.763,4.372-1.657,6.784c2.658,5.783,3.092,10.12,1.283,12.895
		c-3.122,4.793-12.763,5.033-15.606,4.988c-1.789-0.025-3.56,0.842-4.622,2.332c-1.066,1.495-1.325,3.423-0.698,5.152
		c2.676,7.38,3.221,13.665,1.39,16.01c-1.495,1.918-6.119,0.458-9.953-1.547c-1.888-0.997-4.133-0.82-5.852,0.438
		c-1.739,1.276-2.584,3.391-2.2,5.523c0.663,3.667,1.281,10.524-2.018,15.267c-1.968,2.833-5.078,4.594-9.5,5.386
		c-8.052,1.428-15.755-1.036-22.901-7.365c-14.753-13.069-23.323-38.918-25.525-51.821c0.75,0.258,1.495,0.487,2.233,0.673
		c2.858,0.722,5.456,1.1,7.81,1.166c0.956,4.437,5.679,10.956,6.735,12.603c4.973,7.761,10.29,15.424,16.4,22.345
		c3.31,3.685,2.414-3.099,1.879-4.422c-1.722-4.263-4.279-8.323-6.507-12.342c-2.594-4.677-5.283-9.297-7.999-13.904
		c-0.747-1.268-1.778-3.598-3.117-5.508c1.431-0.602,2.719-1.38,3.784-2.429c2.271-2.235,3.31-5.079,3.665-8.015
		c2.606,2.621,5.328,4.861,6.077,5.508c8.195,7.076,17.099,12.973,27.077,17.212c5.099,1.165,0.662-3.877-0.552-4.919
		c-4.072-3.492-8.58-6.503-12.673-9.993c-4.26-3.633-8.385-7.424-12.449-11.274c-0.892-0.845-2.082-2.263-3.43-3.623
		c3.866-0.634,7.072-2.289,9.433-4.9c3.689,3.193,10.836,6.181,12.116,6.792c7.568,3.607,15.327,6.985,23.379,9.371
		c4.771,1.341,0.424-3.917-0.625-4.697c-3.504-2.607-7.636-4.668-11.422-6.829c-3.436-1.961-13.675-9.72-20.074-10.867
		c0.835-3.309,0.362-6.752-1.374-10.094c4.513,0.445,9.583,0.167,10.823,0.16c10.688-0.058,21.463-0.443,32.066-1.87
		c2.821-0.405,1.012-2.779-0.027-3.628c-0.779-0.637-4.343-0.467-5.205-0.547c-5.698-0.529-11.415-0.85-17.131-1.106
		c-5.348-0.24-10.699-0.401-16.05-0.512c-0.768-0.016-1.737-0.105-2.79-0.18c4.702-5.32,6.011-11.293,3.444-17.078
		c-0.1-0.226-0.248-0.436-0.36-0.658c4.217-0.909,9.329-3.363,10.795-3.882c8.432-2.984,16.976-5.698,25.307-8.957
		c4.561-1.811-1.999-3.345-3.467-3.284c-4.547,0.187-9.222,1.369-13.64,2.358c-4.295,0.962-19.071,3.053-23.648,7.928
		c-1.774-1.532-3.877-2.843-6.283-3.942c8.068-8.72,29.703-28.508,57.043-24.736c4.771,0.663,10.783,2.242,12.317,6.007
		c1.562,3.832-1.542,9.931-4.968,14.358c-0.999,1.291-1.378,2.947-1.042,4.547c0.336,1.599,1.35,2.965,2.78,3.74
		c3.628,1.976,5.626,4.225,5.932,6.692c0.434,3.456-2.292,8.284-7.292,12.918c-1.286,1.193-1.941,2.947-1.751,4.691
		c0.189,1.744,1.203,3.314,2.716,4.201c5.538,3.256,8.461,6.821,8.69,10.598C1142.673,667.531,1136.99,673.989,1131.564,678.134z"/>
</g>
</svg>
