<?xml version="1.0" encoding="UTF-8" standalone="no"?>
<!-- Designed by Vexels.com - 2020 All Rights Reserved - https://vexels.com/terms-and-conditions/  -->

<svg
   version="1.1"
   id="Layer_1"
   x="0px"
   y="0px"
   viewBox="0 0 1100.006 318.85544"
   enable-background="new 0 0 1200 1200"
   xml:space="preserve"
   width="1100.006"
   height="318.85544"
   sodipodi:docname="flowers-horizontalspring-composition-stroke-by-Vexels.svg"
   inkscape:export-filename="flowers-horizontalspring-composition-stroke-by-Vexels.png"
   inkscape:export-xdpi="96"
   inkscape:export-ydpi="96"
   xmlns:inkscape="http://www.inkscape.org/namespaces/inkscape"
   xmlns:sodipodi="http://sodipodi.sourceforge.net/DTD/sodipodi-0.dtd"
   xmlns="http://www.w3.org/2000/svg"
   xmlns:svg="http://www.w3.org/2000/svg"><sodipodi:namedview
   id="namedview1"
   pagecolor="#ffffff"
   bordercolor="#000000"
   borderopacity="0.25"
   inkscape:showpageshadow="2"
   inkscape:pageopacity="0.0"
   inkscape:pagecheckerboard="0"
   inkscape:deskcolor="#d1d1d1" /><defs
   id="defs31" />
<g
   id="g31"
   transform="translate(-49.994394,-440.56758)">
	
	
	
	
	
	
	
	
	
	
	
	
	
	
	
	
	
	
	
	
	
	
	
	
	
	
	
	
	
	
	<path
   fill="#231f20"
   d="m 1149.971,661.387 c -0.354,-5.822 -3.772,-10.96 -10.175,-15.3 3.922,-4.093 8.643,-10.606 7.768,-17.599 -0.556,-4.432 -3.182,-8.204 -7.82,-11.241 3.495,-5.02 7.502,-12.935 4.607,-20.033 -2.337,-5.733 -8.511,-9.33 -18.352,-10.696 -23.907,-3.319 -43.507,8.687 -55.745,19.346 -0.092,0.079 -6.606,5.839 -10.247,10.351 -14.255,-3.133 -34.069,-0.817 -58.967,6.914 -3.328,1.035 -6.163,3.063 -8.222,5.753 -5.008,-1.608 -10.394,-3.252 -16.123,-4.892 21.185,-15.495 22.671,-30.128 21.46,-37.875 -0.239,-1.52 -1.131,-2.855 -2.452,-3.662 -1.33,-0.817 -2.942,-1.007 -4.43,-0.523 -27.131,8.896 -31.205,27.616 -31.327,37.553 -14.167,-3.557 -29.833,-6.843 -46.455,-9.345 16.925,-13.257 29.791,-25.777 37.24,-33.524 2.374,1.279 4.968,1.94 7.603,1.94 1.654,0 3.326,-0.259 4.968,-0.785 1.308,-0.419 2.564,-0.999 3.727,-1.722 2.741,-1.699 5.516,-3.318 8.182,-4.873 9.158,-5.343 16.537,-9.658 18.893,-14.846 1.164,-0.875 2.379,-1.801 3.706,-2.843 5.277,-4.139 11.266,-7.812 17.059,-11.363 9.961,-6.106 20.26,-12.421 28.145,-21.661 4.926,-5.775 6.909,-10.116 6.428,-14.076 -0.531,-4.386 -3.832,-6.758 -6.742,-8.851 -1.34,-0.963 -2.606,-1.872 -3.583,-2.925 -0.867,-0.933 -0.284,-3.858 0.279,-6.686 1.236,-6.192 3.102,-15.549 -6.398,-22.814 -9.143,-6.996 -15.977,-3.066 -20.965,-0.201 -3.867,2.22 -6.206,3.426 -9.35,2.283 -2.823,-1.024 -3.174,-2.45 -3.528,-6.595 -0.366,-4.281 -0.977,-11.448 -11.142,-12.493 -17.99,-1.845 -21.81,17.959 -26.496,50.447 -1.445,10.004 -3.372,18.968 -5.715,26.725 -0.45,0.457 -0.869,0.928 -1.231,1.434 -2.372,3.306 -12.126,19.667 -12.933,33.544 -0.239,4.098 0.986,8.071 3.339,11.3 -8.18,8.488 -22.841,22.654 -42.132,37.115 -24.539,-3.09 -50.856,-4.277 -77.425,-1.966 20.666,-10.431 49.56,-27.784 64.183,-49.02 0.56,0.073 1.14,0.122 1.753,0.122 3.769,0 8.383,-1.405 11.712,-4.579 3.403,-3.247 4.796,-7.748 3.921,-12.672 -1.004,-5.668 -4.37,-8.219 -7.018,-9.361 -5.371,-2.318 -11.872,-0.588 -13.999,0.808 -5.421,3.56 -7.95,8.817 -6.934,14.424 0.515,2.844 1.945,5.51 3.835,7.549 -21.878,30.982 -78.629,54.235 -83.451,56.169 -8.164,1.466 -16.297,3.324 -24.365,5.598 10.985,-13.27 13.57,-27.636 15.574,-45.193 1.533,-13.415 -0.668,-25.701 -6.078,-35.088 21.852,-15.286 22.149,-29.265 21.166,-34.731 -0.249,-1.381 -1.091,-2.585 -2.307,-3.304 -1.228,-0.726 -2.713,-0.878 -4.063,-0.426 -18.409,6.206 -24.932,17.006 -27.061,25.611 -6.081,-3.742 -13.142,-5.377 -20.535,-4.601 -15.795,1.648 -21.67,10.085 -23.768,14.967 -3.314,7.721 -2.03,17.159 3.269,24.048 4.602,5.979 11.276,8.797 18.354,7.773 2.09,-0.309 3.535,-2.255 3.229,-4.345 -0.311,-2.09 -2.272,-3.535 -4.345,-3.229 -5.783,0.87 -9.49,-2.681 -11.171,-4.867 -3.58,-4.653 -4.504,-11.229 -2.302,-16.362 2.514,-5.851 8.573,-9.439 17.529,-10.374 7.768,-0.807 15.128,1.816 20.664,7.408 7.977,8.055 11.555,21.415 9.816,36.652 -2.638,23.105 -6.552,36.258 -21.645,49.02 3.833,-8.928 6.436,-22.133 -1.5,-36.124 -0.64,-1.136 -1.742,-1.971 -3.025,-2.29 -1.328,-0.324 -2.748,-0.097 -3.914,0.648 -3.934,2.543 -22.277,16.384 -11.172,46.656 -8.147,2.682 -26.508,7.225 -47.463,7.702 -0.128,0.003 -0.255,0.007 -0.383,0.01 -12.656,0.258 -26.226,-0.991 -39.06,-5.032 9.875,-4.651 23.886,-15.568 32.791,-41.03 2.786,-0.013 5.777,-0.659 8.401,-2.192 4.063,-2.369 6.46,-6.425 6.749,-11.421 0.334,-5.75 -2.354,-9.011 -4.666,-10.733 -4.696,-3.503 -11.411,-3.319 -13.805,-2.449 -6.099,2.21 -9.771,6.739 -10.08,12.43 -0.275,5.042 2.248,10.217 5.947,12.522 -11.619,32.516 -31.743,37.761 -36.407,38.55 -3.911,-1.857 -7.577,-3.973 -10.966,-6.375 8.674,-4.733 23.635,-16.285 26.555,-40.584 0.214,-1.774 -0.488,-3.51 -1.878,-4.644 -1.39,-1.136 -3.234,-1.475 -4.943,-0.904 -23.335,7.828 -31.617,20.885 -33.731,32.823 -4.476,-5.679 -8.133,-12.167 -10.944,-19.449 1.348,-0.87 2.571,-1.951 3.606,-3.237 9.178,-11.403 20.441,-27.819 23.408,-42.635 11.113,-5.156 35.151,-24.613 42.55,-45.125 3.745,-10.387 3.022,-19.874 -2.148,-28.199 -6.189,-9.962 -16.403,-12.599 -28.168,-7.341 0.06,-8.923 -4.46,-11.576 -7.158,-12.364 -4.791,-1.398 -10.867,0.678 -18.234,6.135 -3.543,-7.637 -8.321,-12.22 -13.82,-13.253 -5.102,-0.963 -10.407,1.146 -15.854,6.323 -4.836,-2.684 -14.106,-6.671 -21.891,-3.224 -4.909,2.175 -8.215,6.764 -10.007,13.718 -4.762,-1.854 -11.595,-3.442 -17.12,-0.503 -3.616,1.927 -6.005,5.374 -7.284,10.347 -8.279,-1.814 -14.714,-0.67 -18.601,3.314 -3.926,4.026 -4.832,10.483 -2.692,19.192 7.338,29.874 37.149,42.467 47.368,45.905 2.186,13.2 10.841,29.21 25.777,47.649 1.228,1.516 2.713,2.744 4.355,3.682 -2.767,7.116 -6.349,13.464 -10.711,19.039 -2.135,-11.918 -10.454,-24.955 -33.845,-32.802 -1.702,-0.573 -3.545,-0.227 -4.935,0.909 -1.389,1.131 -2.09,2.868 -1.877,4.641 2.926,24.342 18.085,35.823 26.854,40.502 -3.361,2.409 -6.995,4.537 -10.876,6.403 -4.664,-0.759 -25.13,-5.905 -36.796,-38.496 3.697,-2.304 6.221,-7.481 5.948,-12.522 -0.308,-5.69 -3.982,-10.22 -10.083,-12.43 -2.389,-0.867 -9.106,-1.051 -13.804,2.449 -2.313,1.724 -5,4.985 -4.666,10.733 0.29,4.993 2.687,9.051 6.749,11.421 2.625,1.534 5.616,2.179 8.402,2.192 8.947,25.548 23.159,36.431 33.148,41.038 -34.261,10.898 -74.093,1.654 -87.263,-2.687 11.108,-30.272 -7.238,-44.114 -11.179,-46.662 -1.147,-0.735 -2.566,-0.972 -3.898,-0.645 -1.284,0.319 -2.388,1.151 -3.026,2.28 -7.939,13.999 -5.337,27.208 -1.505,36.138 -15.094,-12.76 -19.008,-25.916 -21.646,-49.021 -1.739,-15.24 1.837,-28.597 9.815,-36.652 5.537,-5.591 12.879,-8.214 20.665,-7.408 8.954,0.936 15.014,4.522 17.527,10.374 2.204,5.134 1.279,11.708 -2.301,16.362 -1.68,2.186 -5.364,5.727 -11.173,4.867 -2.098,-0.299 -4.036,1.139 -4.344,3.229 -0.308,2.09 1.137,4.036 3.228,4.345 7.062,1.021 13.751,-1.794 18.355,-7.773 5.299,-6.889 6.581,-16.329 3.267,-24.049 -2.097,-4.881 -7.97,-13.318 -23.765,-14.966 -7.393,-0.778 -14.455,0.858 -20.537,4.601 -2.128,-8.604 -8.651,-19.405 -27.06,-25.611 -1.353,-0.455 -2.838,-0.3 -4.067,0.429 -1.217,0.72 -2.055,1.926 -2.301,3.3 -0.986,5.467 -0.736,19.451 21.153,34.751 -5.401,9.384 -7.597,21.662 -6.066,35.069 2.004,17.556 4.59,31.923 15.573,45.192 -8.069,-2.275 -16.203,-4.133 -24.368,-5.599 -4.841,-1.941 -61.575,-25.192 -83.449,-56.168 1.89,-2.039 3.32,-4.705 3.835,-7.549 1.016,-5.607 -1.511,-10.864 -6.934,-14.424 -2.126,-1.395 -8.619,-3.128 -13.999,-0.808 -2.648,1.142 -6.015,3.694 -7.02,9.361 -0.873,4.925 0.521,9.426 3.924,12.672 3.328,3.177 7.943,4.579 11.712,4.579 0.613,0 1.192,-0.05 1.752,-0.123 14.624,21.236 43.517,38.589 64.183,49.019 -26.57,-2.312 -52.887,-1.124 -77.427,1.966 -19.291,-14.462 -33.951,-28.628 -42.128,-37.116 2.351,-3.229 3.578,-7.201 3.339,-11.298 -0.808,-13.868 -10.561,-30.236 -12.932,-33.543 v -10e-4 c -0.363,-0.505 -0.782,-0.976 -1.233,-1.434 -2.344,-7.765 -4.273,-16.73 -5.714,-26.725 -4.688,-32.484 -8.493,-52.293 -26.497,-50.447 -10.162,1.045 -10.775,8.21 -11.142,12.492 -0.354,4.146 -0.706,5.572 -3.53,6.597 -3.138,1.137 -5.481,-0.061 -9.349,-2.285 -4.989,-2.866 -11.827,-6.789 -20.964,0.201 -9.498,7.264 -7.634,16.62 -6.399,22.812 0.564,2.828 1.147,5.753 0.28,6.687 -0.979,1.054 -2.243,1.963 -3.583,2.926 -2.911,2.092 -6.211,4.463 -6.743,8.851 -0.48,3.959 1.502,8.3 6.429,14.075 7.883,9.241 18.182,15.554 28.142,21.659 5.795,3.553 11.787,7.225 17.061,11.365 1.328,1.043 2.544,1.969 3.709,2.844 2.354,5.187 9.733,9.502 18.893,14.846 2.665,1.555 5.441,3.174 8.18,4.873 1.166,0.725 2.42,1.303 3.723,1.722 1.643,0.526 3.315,0.785 4.973,0.785 2.634,0 5.229,-0.661 7.602,-1.94 7.449,7.747 20.314,20.267 37.237,33.523 -16.622,2.502 -32.287,5.787 -46.453,9.345 -0.12,-9.935 -4.19,-28.655 -31.328,-37.552 -1.484,-0.486 -3.096,-0.296 -4.428,0.523 -1.32,0.807 -2.214,2.143 -2.45,3.662 -1.211,7.747 0.274,22.38 21.459,37.875 -5.729,1.641 -11.114,3.284 -16.122,4.892 -2.059,-2.69 -4.896,-4.718 -8.225,-5.752 -24.876,-7.725 -44.674,-10.044 -58.93,-6.923 -6.477,-7.711 -31.682,-34.466 -66.026,-29.688 -9.88,1.37 -16.063,4.99 -18.379,10.76 -2.839,7.071 1.079,14.886 4.632,19.971 -4.638,3.034 -7.264,6.806 -7.818,11.241 -0.871,6.968 3.755,13.426 7.766,17.599 -6.39,4.33 -9.809,9.455 -10.171,15.265 -0.603,9.664 7.563,17.838 12.462,21.837 -3.208,7.678 -3.236,14.007 -0.078,18.827 4.22,6.445 12.818,8.117 19.204,8.393 -1.968,6.351 -3.512,15.207 0.691,20.591 2.014,2.581 6.63,5.917 16,2.168 -0.429,5.07 0.005,11.637 3.662,17.014 3.139,4.617 8.035,7.546 14.55,8.712 1.982,0.354 3.94,0.531 5.877,0.531 8.295,0 16.158,-3.249 23.442,-9.699 17.938,-15.886 28,-48.431 28.647,-61.661 13.893,-8.96 26.094,-27.142 34.016,-41.154 1.911,-3.381 2.519,-7.258 1.82,-11.002 7.925,-2.53 16.795,-5.15 26.445,-7.68 0.055,-0.013 0.109,-0.027 0.163,-0.042 17.277,-4.525 37.005,-8.73 58.14,-11.547 4.572,3.361 9.4,6.721 14.434,10.025 -11.889,2.081 -29.175,8.915 -36.582,30.598 -0.476,1.385 -0.289,2.885 0.512,4.113 0.796,1.218 2.08,1.988 3.525,2.11 0.756,0.062 1.922,0.132 3.414,0.132 9.403,0 31.677,-2.804 45.365,-27.013 23.754,13.524 51.23,24.616 80.66,28.033 0.286,0.063 0.571,0.103 0.858,0.1 0.898,0.099 1.789,0.229 2.69,0.314 5.165,0.488 10.306,0.73 15.422,0.73 15.912,0 31.52,-2.364 46.469,-6.971 4.71,7.177 17.333,22.896 37.567,22.896 2.763,0 5.67,-0.294 8.717,-0.944 1.577,-0.334 2.926,-1.41 3.61,-2.88 0.684,-1.472 0.638,-3.201 -0.126,-4.629 -6.294,-11.756 -15.679,-19.776 -27.09,-23.42 4.208,-2.059 8.34,-4.314 12.388,-6.762 0.82,0.013 1.632,0.039 2.459,0.039 15.665,0 32.51,-2.312 47.908,-9.089 0.461,-0.203 0.901,-0.427 1.356,-0.636 0.011,-0.005 0.021,-0.011 0.033,-0.015 6.782,-3.128 12.829,-7.028 18.208,-11.602 0.189,-0.119 0.352,-0.262 0.518,-0.414 0.945,-0.818 1.827,-1.697 2.727,-2.559 0.376,-0.254 0.692,-0.567 0.957,-0.937 7.87,-7.819 14.037,-17.339 18.313,-28.631 0.083,10e-4 0.163,0.014 0.246,0.014 0.007,0 0.016,0 0.025,0 0.322,0 0.638,-0.034 0.956,-0.055 4.373,11.49 10.635,21.217 18.738,29.108 0.015,0.016 0.031,0.028 0.047,0.044 1.212,1.179 2.474,2.308 3.768,3.404 0.033,0.025 0.06,0.055 0.094,0.079 5.411,4.569 11.531,8.425 18.351,11.544 0.067,0.03 0.127,0.066 0.196,0.092 0.322,0.146 0.631,0.306 0.956,0.449 15.11,6.652 32.239,8.974 48.368,8.974 0.652,0 1.294,-0.02 1.943,-0.027 4.025,2.442 8.132,4.689 12.31,6.747 -9.471,3.014 -19.53,9.716 -26.993,23.657 -0.762,1.425 -0.805,3.157 -0.12,4.627 0.683,1.47 2.033,2.544 3.605,2.878 3.077,0.655 6.007,0.952 8.797,0.952 20.336,0 32.996,-15.756 37.714,-22.949 14.966,4.63 30.561,7.007 46.433,7.007 5.055,0 10.137,-0.239 15.232,-0.72 0.904,-0.085 1.797,-0.215 2.697,-0.315 0.273,0.002 0.543,-0.038 0.814,-0.095 29.443,-3.412 56.933,-14.508 80.697,-28.038 13.691,24.211 35.963,27.014 45.367,27.014 1.49,0 2.658,-0.07 3.416,-0.132 1.445,-0.122 2.731,-0.892 3.525,-2.115 0.802,-1.231 0.987,-2.731 0.513,-4.103 -7.41,-21.686 -24.695,-28.523 -36.584,-30.605 5.033,-3.304 9.861,-6.664 14.433,-10.025 21.131,2.816 40.855,7.021 58.129,11.545 0.061,0.017 0.122,0.034 0.185,0.048 9.646,2.53 18.513,5.15 26.436,7.679 -0.7,3.744 -0.092,7.62 1.819,11.001 7.92,14.011 20.121,32.194 34.013,41.152 0.647,13.227 10.705,45.771 28.645,61.66 7.285,6.453 15.148,9.701 23.444,9.701 1.936,0 3.896,-0.177 5.877,-0.531 6.438,-1.151 11.293,-4.029 14.44,-8.55 3.702,-5.324 4.253,-11.787 3.779,-17.178 9.398,3.742 13.999,0.384 15.992,-2.165 4.088,-5.239 2.865,-13.635 0.693,-20.594 6.281,-0.284 15.001,-1.933 19.224,-8.421 3.137,-4.818 3.102,-11.139 -0.1,-18.8 4.781,-3.901 13.057,-12.125 12.472,-21.797 z M 969.093,499.645 c 5.172,-35.847 8.892,-44.886 18.14,-43.927 3.859,0.397 3.934,1.281 4.298,5.531 0.354,4.125 0.884,10.358 8.543,13.137 6.632,2.414 11.7,-0.502 15.773,-2.84 4.624,-2.655 7.409,-4.25 12.504,-0.358 5.324,4.073 4.891,8.474 3.543,15.237 -0.897,4.496 -1.913,9.589 1.617,13.391 1.497,1.613 3.211,2.845 4.724,3.931 1.791,1.288 3.483,2.505 3.61,3.558 0.087,0.719 -0.192,2.956 -4.654,8.187 -7.096,8.318 -16.433,14.043 -26.319,20.104 -5.979,3.665 -12.16,7.454 -17.784,11.868 -0.009,0.007 -0.018,0.014 -0.027,0.021 -1.274,-1.94 -2.66,-3.159 -4.01,-3.928 4.482,-3.532 8.292,-8.897 12.044,-13.141 7.493,-8.473 14.316,-17.446 21.571,-26.1 0.873,-1.253 0.727,-2.627 -0.926,-3.137 -1.588,-0.49 -3.933,2.423 -4.835,3.222 -4.457,3.945 -8.676,8.166 -12.868,12.388 -4.623,4.655 -9.164,9.388 -13.658,14.167 -1.755,1.866 -4.481,4.079 -6.425,6.537 -0.972,-1.594 -2.345,-2.919 -4.098,-3.885 -1.053,-0.581 -2.175,-0.971 -3.345,-1.199 3.268,-4.735 6.275,-13.296 6.771,-14.789 3.833,-11.522 5.87,-23.611 6.297,-35.736 0.119,-2.863 -2.605,-1.568 -3.588,-0.535 -0.592,0.622 -0.835,3.26 -1.025,4.001 -1.52,5.937 -3.024,11.883 -4.789,17.754 -1.676,5.575 -3.549,11.085 -5.691,16.499 -0.533,1.347 -1.669,3.334 -2.687,5.459 -0.948,-0.96 -2.094,-1.763 -3.45,-2.35 -1.186,-0.513 -2.404,-0.792 -3.617,-0.893 1.741,-6.714 3.202,-14.14 4.361,-22.174 z m -8.301,31.524 c 0.229,-0.318 0.506,-0.61 0.872,-0.918 0.745,-0.627 1.492,-0.84 2.167,-0.84 0.558,0 1.066,0.145 1.477,0.324 1.104,0.477 1.831,1.17 1.801,3 -0.027,1.903 0.685,3.687 2.011,5.024 1.333,1.347 3.199,2.058 5.057,2.07 0.755,0.036 1.385,0.152 1.981,0.481 0.85,0.468 1.727,1.208 1.799,3.155 0.132,3.595 3.042,6.414 6.769,6.557 0.727,0.027 1.664,1.014 2.506,2.632 0.037,0.072 0.052,0.1 0,0.289 -0.737,2.788 -9.133,7.683 -15.878,11.62 -2.723,1.587 -5.558,3.241 -8.364,4.983 -0.63,0.391 -1.31,0.705 -2.023,0.932 -2.713,0.874 -5.598,0.344 -7.92,-1.452 -2.549,-1.976 -3.956,-5.09 -3.77,-8.329 0.699,-11.961 9.858,-27.218 11.515,-29.528 z m -70.671,7.265 c 0.902,-0.453 4.579,-1.315 7.018,-0.125 0.792,0.387 1.893,1.178 2.319,3.58 0.429,2.419 -0.117,4.316 -1.672,5.799 -2.247,2.144 -5.807,2.75 -7.519,2.363 -0.989,-0.224 -3.187,-2.189 -3.695,-4.993 -0.457,-2.53 0.736,-4.759 3.549,-6.624 z M 779.093,528.121 c 0.64,-7.39 4.734,-16.587 19.143,-22.538 -0.556,4.83 -3.828,13.662 -18.113,23.655 -0.335,-0.381 -0.681,-0.751 -1.03,-1.117 z m -92.205,41.543 c 0.987,-0.239 4.759,-0.219 6.854,1.502 0.68,0.558 1.57,1.585 1.43,4.019 -0.145,2.454 -1.114,4.173 -2.97,5.257 -2.678,1.562 -6.286,1.33 -7.863,0.558 -0.909,-0.446 -2.594,-2.865 -2.439,-5.71 0.14,-2.569 1.819,-4.462 4.988,-5.626 z m -179.09,10.778 c -1.855,-1.084 -2.825,-2.803 -2.967,-5.257 -0.142,-2.434 0.747,-3.461 1.428,-4.019 1.541,-1.266 3.99,-1.609 5.57,-1.609 0.569,0 1.025,0.045 1.284,0.107 3.17,1.164 4.849,3.057 4.988,5.626 0.154,2.845 -1.531,5.264 -2.439,5.71 -1.576,0.772 -5.184,1.004 -7.864,-0.558 z M 401.764,505.583 c 14.407,5.951 18.501,15.148 19.144,22.537 -0.349,0.366 -0.695,0.736 -1.03,1.117 -14.287,-9.993 -17.56,-18.823 -18.114,-23.654 z m -92.032,44.469 c -1.71,0.387 -5.271,-0.219 -7.518,-2.363 -1.555,-1.482 -2.102,-3.38 -1.672,-5.8 0.425,-2.4 1.526,-3.191 2.318,-3.579 0.911,-0.446 1.996,-0.604 3.044,-0.604 1.755,0 3.409,0.445 3.973,0.727 2.814,1.866 4.009,4.096 3.55,6.627 -0.507,2.804 -2.707,4.768 -3.695,4.992 z M 206.94,547.484 c -0.009,-0.007 -0.018,-0.014 -0.027,-0.021 -5.624,-4.412 -11.807,-8.203 -17.787,-11.869 -9.886,-6.06 -19.224,-11.784 -26.319,-20.102 -4.462,-5.231 -4.741,-7.468 -4.654,-8.187 0.128,-1.053 1.82,-2.27 3.613,-3.558 1.511,-1.086 3.225,-2.318 4.724,-3.931 3.53,-3.801 2.514,-8.897 1.618,-13.392 -1.349,-6.763 -1.784,-11.164 3.542,-15.236 5.099,-3.897 7.887,-2.293 12.503,0.358 4.073,2.339 9.141,5.251 15.773,2.841 7.659,-2.78 8.192,-9.014 8.544,-13.14 0.364,-4.249 0.438,-5.134 4.298,-5.53 9.223,-0.965 12.968,8.081 18.139,43.927 1.159,8.029 2.622,15.454 4.361,22.173 -1.214,0.101 -2.431,0.38 -3.618,0.895 -1.371,0.594 -2.53,1.407 -3.484,2.382 -1.823,-5.22 -4.663,-10.748 -5.208,-12.29 -3.632,-10.29 -6.245,-20.894 -8.949,-31.454 -0.723,-2.777 -2.948,-0.733 -3.588,0.535 -0.601,1.192 0.251,5.028 0.357,6.322 0.531,6.451 1.544,12.871 3.04,19.169 0.869,3.658 4.016,18.794 8.785,25.226 -0.852,0.237 -1.673,0.573 -2.457,1.006 -1.797,0.991 -3.192,2.359 -4.168,4.005 -3.242,-4.393 -7.908,-8.325 -11.623,-12.213 -7.808,-8.175 -15.685,-17.083 -24.743,-23.907 -2.372,-1.697 -2.641,1.386 -2.39,2.701 0.159,0.835 2.102,2.628 2.613,3.275 3.678,4.658 7.371,9.291 11.191,13.834 4.233,5.033 8.57,9.981 13.011,14.832 1.907,2.083 4.181,5.348 6.818,7.479 -1.321,0.772 -2.671,1.976 -3.915,3.87 z m 32.087,22.995 c -0.708,-0.227 -1.388,-0.541 -2.023,-0.934 -2.8,-1.739 -5.636,-3.393 -8.359,-4.98 -6.745,-3.936 -15.14,-8.832 -15.879,-11.619 -0.05,-0.191 -0.036,-0.218 0,-0.286 0.842,-1.623 1.779,-2.608 2.504,-2.636 3.728,-0.143 6.64,-2.962 6.772,-6.557 0.071,-1.946 0.949,-2.687 1.8,-3.155 0.585,-0.324 1.222,-0.481 1.946,-0.481 0.012,0 0.025,0 0.037,0 1.918,0.083 3.722,-0.725 5.056,-2.072 1.324,-1.338 2.038,-3.123 2.008,-5.025 -0.03,-1.827 0.699,-2.52 1.801,-2.997 0.911,-0.399 2.283,-0.633 3.644,0.513 0.369,0.311 0.647,0.604 0.873,0.921 1.657,2.312 10.815,17.576 11.511,29.528 0.189,3.239 -1.22,6.353 -3.769,8.329 -2.313,1.792 -5.2,2.328 -7.922,1.451 z m -98.261,173.523 c -7.143,6.326 -14.849,8.8 -22.896,7.362 -4.473,-0.8 -7.604,-2.594 -9.569,-5.484 -3.368,-4.95 -2.585,-12.068 -1.819,-15.87 0.405,-2.006 -0.366,-4.004 -2.011,-5.214 -1.649,-1.211 -3.792,-1.355 -5.587,-0.364 -3.874,2.128 -8.958,3.894 -10.541,1.864 -1.887,-2.419 -1.271,-8.892 1.57,-16.491 0.605,-1.617 0.369,-3.423 -0.632,-4.826 -1.008,-1.413 -2.652,-2.28 -4.395,-2.187 -2.961,0.055 -12.851,-0.05 -16.068,-4.965 -2.297,-3.508 -0.512,-9.091 1.393,-13.162 1.043,-2.232 0.379,-4.918 -1.57,-6.375 -5.54,-4.168 -11.331,-10.681 -10.971,-16.456 0.242,-3.859 3.29,-7.492 9.064,-10.8 1.452,-0.832 2.425,-2.319 2.605,-3.979 0.177,-1.637 -0.447,-3.274 -1.672,-4.382 -1.958,-1.769 -8.296,-7.95 -7.636,-13.232 0.316,-2.529 2.407,-4.831 6.209,-6.839 1.394,-0.732 2.379,-2.03 2.704,-3.56 0.319,-1.505 -0.046,-3.064 -1.005,-4.28 -3.555,-4.495 -6.792,-10.698 -5.213,-14.629 1.519,-3.782 7.543,-5.369 12.329,-6.034 27.337,-3.772 48.974,16.017 57.041,24.737 -2.517,1.149 -4.693,2.538 -6.517,4.161 -3.567,-2.842 -11.158,-4.841 -12.871,-5.366 -8.69,-2.663 -17.772,-4.707 -26.854,-5.395 -4.894,-0.312 0.362,3.885 1.666,4.479 4.087,1.862 8.585,3.052 12.821,4.529 5.612,1.957 11.271,3.818 16.813,5.971 1.052,0.409 2.463,1.1 3.912,1.571 -0.081,0.166 -0.193,0.322 -0.268,0.49 -2.566,5.783 -1.254,11.757 3.45,17.078 -4.039,-0.085 -8.108,0.305 -9.232,0.338 -10.653,0.318 -21.36,0.723 -31.947,2.005 -2.824,0.363 -1.056,2.764 -0.027,3.628 0.774,0.65 4.352,0.516 5.214,0.602 5.71,0.573 11.448,0.897 17.183,1.087 3.343,0.111 13.085,1.432 20.123,0.708 -1.531,3.288 -1.811,6.658 -0.868,9.886 -4.668,1.241 -10.964,5.257 -12.245,5.952 -7.314,3.969 -14.615,8.056 -21.544,12.674 -4.1,2.786 2.725,2.839 4.013,2.516 4.25,-1.065 8.5,-3.079 12.519,-4.79 3.663,-1.56 16.33,-5.491 20.821,-10.233 2.434,2.523 5.705,4.086 9.631,4.62 -3.528,2.814 -6.931,6.334 -7.556,6.913 -7.61,7.048 -15.617,13.464 -23.911,19.68 -2.216,1.66 0.351,3.039 1.818,3.137 0.83,0.055 2.647,-1.139 3.394,-1.484 4.908,-2.267 9.54,-5.004 13.969,-8.104 4.583,-3.209 8.904,-6.783 13.026,-10.561 0.776,-0.712 1.779,-1.522 2.805,-2.398 0.376,2.871 1.418,5.645 3.642,7.835 1.115,1.098 2.462,1.912 3.976,2.52 -2.696,3.4 -5.077,8.425 -5.906,9.844 -4.623,7.92 -9.228,15.921 -13.067,24.258 -2.042,4.514 3.807,0.958 4.804,-0.081 3.193,-3.328 5.827,-7.397 8.494,-11.154 2.441,-3.439 12.667,-15.204 13.229,-21.744 2.261,-0.094 4.739,-0.466 7.456,-1.152 0.739,-0.186 1.484,-0.415 2.234,-0.674 -2.205,12.9 -10.777,38.752 -25.53,51.82 z m 61.075,-100.854 c -6.397,11.313 -19.199,31.484 -33.076,39.479 -2.381,1.37 -4.532,2.287 -6.579,2.805 -5.751,1.45 -9.922,1.266 -11.743,-0.526 -1.657,-1.632 -1.993,-5.371 -0.899,-10.003 0.434,-1.834 -0.055,-3.772 -1.307,-5.182 -1.109,-1.253 -2.698,-1.958 -4.345,-1.958 -0.213,0 -0.426,0.012 -0.64,0.035 -3.595,0.411 -8.36,0.06 -10.606,-3.832 -1.736,-3.007 -0.842,-6.336 2.657,-9.896 1.216,-1.238 1.816,-2.935 1.647,-4.656 -0.169,-1.722 -1.092,-3.274 -2.526,-4.25 -3.527,-2.407 -9.077,-7.27 -6.631,-12.786 0.407,-0.917 0.997,-1.809 1.75,-2.648 2.156,-2.402 5.632,-4.318 10.05,-5.543 8.913,-2.466 26.048,-3.388 57.094,6.253 2.211,0.688 3.991,2.205 5.1,4.19 0.003,0.009 0.003,0.019 0.006,0.028 0.128,0.392 0.328,0.737 0.559,1.054 0.96,2.448 0.777,5.157 -0.511,7.436 z m 7.351,-52.935 c 21.29,8.144 23.569,23.18 23.226,30.754 -19.32,-12.452 -23.194,-23.751 -23.226,-30.754 z m 236.141,-1.021 c 5.214,4.483 13.205,15.221 5.769,35.617 -0.068,-0.028 -0.136,-0.056 -0.204,-0.084 -2.098,-2.666 -13.34,-18.173 -5.565,-35.533 z m -163.684,66.764 c 9.231,-20.679 29.817,-22.547 36.96,-22.547 0.066,0 0.131,0 0.194,0 -11.221,19.303 -28.711,22.305 -37.154,22.547 z m 107.785,-21.658 c 15.581,6.351 18.157,16.864 18.34,22.432 -14.22,-9.384 -17.707,-17.623 -18.34,-22.432 z m 123.669,39.541 c -17.301,1.877 -28.713,-10.512 -33.725,-17.552 0.847,-0.309 1.688,-0.633 2.53,-0.957 13.24,0.62 23.961,6.972 31.195,18.509 z m -97.736,-16.051 c 0.025,-7.706 -2.91,-23.814 -26.293,-31.791 -1.616,-0.548 -3.368,-0.331 -4.808,0.6 -1.449,0.939 -2.371,2.464 -2.526,4.181 -0.377,4.099 0.379,13.356 11.313,23.982 -32.836,-6.724 -62.718,-22.7 -86.739,-39.462 29.454,-3.127 61.152,-3.278 92.431,2.286 0.073,0.015 0.146,0.027 0.22,0.038 17.888,3.198 35.635,8.243 52.733,15.713 0.006,0.003 0.016,0.006 0.022,0.009 0,0 10e-4,10e-4 10e-4,10e-4 l 0.004,10e-4 c 4.515,1.963 20.568,6.924 40.854,8.915 -23.786,11.948 -50.16,17.262 -77.212,15.527 z m 133.476,-75.694 c 17.156,6.743 25.678,17.434 25.39,31.827 -0.082,0.077 -0.163,0.154 -0.245,0.23 -5.546,-2.364 -20.952,-10.73 -25.145,-32.057 z m 12.58,-54.415 c -10.282,-4.026 -33.634,-15.621 -39.51,-39.541 -1.446,-5.886 -1.19,-10.044 0.74,-12.022 1.89,-1.937 6.074,-2.366 11.482,-1.181 4.188,0.914 8.351,-1.729 9.289,-5.9 0.593,-2.635 1.649,-4.325 3.233,-5.168 2.308,-1.226 6.124,-0.917 10.747,0.881 2.114,0.821 4.471,0.686 6.466,-0.364 1.991,-1.049 3.427,-2.907 3.941,-5.102 1.034,-4.414 2.875,-7.236 5.474,-8.387 4.924,-2.181 12.184,1.313 15.074,2.919 2.975,1.651 6.646,1.157 9.133,-1.232 3.444,-3.305 6.476,-4.735 9.024,-4.262 3.944,0.741 6.886,5.927 8.291,8.954 0.997,2.146 2.883,3.701 5.172,4.267 2.295,0.566 4.694,0.066 6.582,-1.372 5.733,-4.374 9.582,-5.389 11.279,-4.906 1.512,0.442 1.657,3.619 1.647,4.967 -0.017,2.666 1.32,5.126 3.578,6.579 2.24,1.445 5.01,1.643 7.412,0.536 12.153,-5.608 16.802,1.859 18.329,4.315 3.874,6.235 4.36,13.49 1.45,21.563 -5.975,16.572 -24.416,32.234 -34.635,38.592 -0.036,-0.533 -0.077,-1.063 -0.145,-1.579 -0.342,-2.585 -0.887,-4.837 -1.59,-6.823 3.451,-2.263 7.109,-8.249 8.271,-9.879 4.88,-6.848 9.518,-13.964 13.252,-21.513 2.134,-4.478 -3.904,-1.038 -4.852,-0.099 -2.928,2.899 -5.526,6.226 -8.148,9.396 -2.034,2.458 -9.501,9.749 -12.585,15.452 -0.918,-0.85 -1.931,-1.535 -3.052,-2.028 -2.463,-1.083 -5.004,-1.133 -7.433,-0.621 1.472,-3.568 2.508,-7.219 2.872,-8.341 2.824,-8.712 4.575,-17.639 4.626,-26.813 -0.63,-3.93 -3.019,-0.716 -3.926,0.657 -2.356,3.567 -3.057,10.672 -4.44,14.728 -1.853,5.432 -3.92,10.791 -6.062,16.115 -0.268,0.667 -0.702,1.551 -1.145,2.527 -1.804,-2.796 -4.182,-4.817 -6.98,-5.936 1.399,-4.122 1.539,-10.665 1.642,-12.288 0.484,-7.625 0.696,-15.35 -0.111,-22.963 -0.5,-4.104 -3.467,0.187 -3.979,1.418 -1.537,3.696 -1.595,8.674 -2.174,12.627 -0.528,3.601 -3.396,14.516 -2.392,20.349 -3.057,0.453 -5.784,2.03 -8.019,4.589 -1.427,-5.213 -4.124,-11.168 -4.546,-12.171 -3.327,-7.895 -6.8,-15.788 -10.99,-23.271 -2.448,-3.016 -3.139,0.81 -3.093,2.539 0.106,3.97 2.457,8.974 3.644,12.702 1.694,5.319 3.515,10.601 5.454,15.836 0.461,1.244 0.995,3.159 1.676,5.105 -5.78,-1.75 -10.986,-0.661 -14.878,3.319 -0.076,0.078 -0.136,0.175 -0.211,0.254 -2.14,-3.119 -5.602,-6.34 -6.648,-7.53 -5.377,-6.117 -10.593,-12.392 -16.227,-18.277 -3.432,-3.521 -2.358,3.234 -1.77,4.484 1.736,3.695 4.104,7.203 6.38,10.577 2.273,3.368 8.876,14.817 14.526,17.213 -0.634,1.869 -1.001,3.917 -1.145,6.109 z m 38.221,53.914 c -0.004,0 -0.009,0 -0.012,0 -2.362,0 -4.569,-1.054 -6.059,-2.892 -18.56,-22.913 -23.539,-37.68 -24.448,-46.034 -0.445,-4.083 -0.006,-7.605 1.269,-10.184 0.44,-0.887 0.977,-1.657 1.592,-2.287 3.672,-3.753 9.484,-0.766 12.62,1.35 1.399,0.943 3.125,1.215 4.739,0.749 1.609,-0.466 2.921,-1.616 3.599,-3.154 1.763,-4 4.144,-5.819 7.117,-5.379 3.868,0.563 5.689,4.355 6.535,7.442 0.488,1.76 1.804,3.182 3.525,3.799 1.719,0.622 3.64,0.362 5.132,-0.684 3.453,-2.417 6.6,-3.381 8.436,-2.574 2.016,0.887 3.508,4.258 4.198,9.492 0.249,1.881 0.197,3.979 -0.157,6.419 -2.08,14.377 -14.799,31.935 -22.195,41.123 -1.436,1.785 -3.584,2.811 -5.891,2.814 z m 51.515,0.501 c -4.172,21.338 -19.379,29.788 -24.872,32.188 -0.135,-0.123 -0.265,-0.25 -0.399,-0.374 -0.288,-14.405 8.191,-25.095 25.271,-31.814 z m 103.507,7.098 c 7.778,17.359 -3.466,32.87 -5.565,35.533 -0.068,0.028 -0.136,0.056 -0.204,0.084 -7.441,-20.406 0.561,-31.145 5.769,-35.617 z m -67.781,84.647 c 7.328,-11.826 17.762,-18.098 31.033,-18.717 0.978,0.38 1.957,0.755 2.941,1.115 -5.02,7.076 -16.492,19.57 -33.974,17.602 z m 105.341,-17.108 c 0.182,-5.571 2.758,-16.082 18.339,-22.432 -0.63,4.808 -4.115,13.047 -18.339,22.432 z m 126.122,-0.775 c -8.443,-0.242 -25.93,-3.246 -37.152,-22.547 0.062,0 0.127,0 0.192,0 7.143,0 27.725,1.871 36.96,22.547 z M 806.947,654.76 c 10.933,-10.626 11.69,-19.882 11.315,-23.977 -0.157,-1.722 -1.079,-3.246 -2.526,-4.186 -1.44,-0.932 -3.184,-1.151 -4.808,-0.6 -23.38,7.977 -26.318,24.083 -26.293,31.79 -26.94,1.715 -53.292,-3.647 -77.146,-15.675 18.662,-1.705 34.182,-5.889 40.785,-8.766 0.003,-10e-4 0.006,-10e-4 0.008,-0.003 l 0.003,-0.002 c 0.006,-0.003 0.014,-0.005 0.02,-0.008 17.092,-7.467 34.832,-12.513 52.715,-15.711 0.084,-0.012 0.168,-0.025 0.252,-0.043 31.274,-5.562 62.967,-5.411 92.417,-2.284 -24.025,16.763 -53.907,32.74 -86.742,39.465 z m 183.861,-64.547 c -0.032,7.003 -3.909,18.302 -23.225,30.756 -0.341,-7.576 1.941,-22.612 23.225,-30.756 z m 7.352,52.935 c -1.288,-2.277 -1.471,-4.984 -0.515,-7.433 0.232,-0.318 0.433,-0.664 0.562,-1.058 0.003,-0.011 0.004,-0.021 0.007,-0.032 1.11,-1.984 2.889,-3.5 5.098,-4.186 19.278,-5.987 33.193,-7.903 43.109,-7.903 6.049,0 10.608,0.715 13.984,1.649 4.422,1.226 7.895,3.142 10.05,5.541 v 0.003 c 0.752,0.835 1.343,1.727 1.751,2.648 2.447,5.516 -3.104,10.379 -6.63,12.786 -1.438,0.979 -2.359,2.531 -2.529,4.253 -0.167,1.722 0.433,3.418 1.649,4.654 3.498,3.56 4.392,6.889 2.656,9.896 -2.245,3.887 -6.998,4.23 -10.601,3.834 -1.866,-0.222 -3.74,0.508 -4.988,1.918 -1.253,1.413 -1.741,3.351 -1.308,5.185 1.094,4.632 0.757,8.371 -0.902,10.003 -1.821,1.791 -5.989,1.976 -11.742,0.526 -2.043,-0.516 -4.196,-1.433 -6.577,-2.805 -13.875,-7.996 -26.679,-28.166 -33.074,-39.479 z m 133.404,34.986 c -2.083,1.585 -2.763,4.372 -1.657,6.784 2.658,5.783 3.092,10.12 1.283,12.895 -3.122,4.793 -12.763,5.033 -15.606,4.988 -1.789,-0.025 -3.56,0.842 -4.622,2.332 -1.066,1.495 -1.325,3.423 -0.698,5.152 2.676,7.38 3.221,13.665 1.39,16.01 -1.495,1.918 -6.119,0.458 -9.953,-1.547 -1.888,-0.997 -4.133,-0.82 -5.852,0.438 -1.739,1.276 -2.584,3.391 -2.2,5.523 0.663,3.667 1.281,10.524 -2.018,15.267 -1.968,2.833 -5.078,4.594 -9.5,5.386 -8.052,1.428 -15.755,-1.036 -22.901,-7.365 -14.753,-13.069 -23.323,-38.918 -25.525,-51.821 0.75,0.258 1.495,0.487 2.233,0.673 2.858,0.722 5.456,1.1 7.81,1.166 0.956,4.437 5.679,10.956 6.735,12.603 4.973,7.761 10.29,15.424 16.4,22.345 3.31,3.685 2.414,-3.099 1.879,-4.422 -1.722,-4.263 -4.279,-8.323 -6.507,-12.342 -2.594,-4.677 -5.283,-9.297 -7.999,-13.904 -0.747,-1.268 -1.778,-3.598 -3.117,-5.508 1.431,-0.602 2.719,-1.38 3.784,-2.429 2.271,-2.235 3.31,-5.079 3.665,-8.015 2.606,2.621 5.328,4.861 6.077,5.508 8.195,7.076 17.099,12.973 27.077,17.212 5.099,1.165 0.662,-3.877 -0.552,-4.919 -4.072,-3.492 -8.58,-6.503 -12.673,-9.993 -4.26,-3.633 -8.385,-7.424 -12.449,-11.274 -0.892,-0.845 -2.082,-2.263 -3.43,-3.623 3.866,-0.634 7.072,-2.289 9.433,-4.9 3.689,3.193 10.836,6.181 12.116,6.792 7.568,3.607 15.327,6.985 23.379,9.371 4.771,1.341 0.424,-3.917 -0.625,-4.697 -3.504,-2.607 -7.636,-4.668 -11.422,-6.829 -3.436,-1.961 -13.675,-9.72 -20.074,-10.867 0.835,-3.309 0.362,-6.752 -1.374,-10.094 4.513,0.445 9.583,0.167 10.823,0.16 10.688,-0.058 21.463,-0.443 32.066,-1.87 2.821,-0.405 1.012,-2.779 -0.027,-3.628 -0.779,-0.637 -4.343,-0.467 -5.205,-0.547 -5.698,-0.529 -11.415,-0.85 -17.131,-1.106 -5.348,-0.24 -10.699,-0.401 -16.05,-0.512 -0.768,-0.016 -1.737,-0.105 -2.79,-0.18 4.702,-5.32 6.011,-11.293 3.444,-17.078 -0.1,-0.226 -0.248,-0.436 -0.36,-0.658 4.217,-0.909 9.329,-3.363 10.795,-3.882 8.432,-2.984 16.976,-5.698 25.307,-8.957 4.561,-1.811 -1.999,-3.345 -3.467,-3.284 -4.547,0.187 -9.222,1.369 -13.64,2.358 -4.295,0.962 -19.071,3.053 -23.648,7.928 -1.774,-1.532 -3.877,-2.843 -6.283,-3.942 8.068,-8.72 29.703,-28.508 57.043,-24.736 4.771,0.663 10.783,2.242 12.317,6.007 1.562,3.832 -1.542,9.931 -4.968,14.358 -0.999,1.291 -1.378,2.947 -1.042,4.547 0.336,1.599 1.35,2.965 2.78,3.74 3.628,1.976 5.626,4.225 5.932,6.692 0.434,3.456 -2.292,8.284 -7.292,12.918 -1.286,1.193 -1.941,2.947 -1.751,4.691 0.189,1.744 1.203,3.314 2.716,4.201 5.538,3.256 8.461,6.821 8.69,10.598 0.343,5.683 -5.34,12.141 -10.766,16.286 z"
   id="path31" />
</g>
</svg>
